<?xml version="1.0" encoding="UTF-8" standalone="no"?>
<svg width="1726px" height="459px" viewBox="0 0 1726 459" version="1.1" xmlns="http://www.w3.org/2000/svg" xmlns:xlink="http://www.w3.org/1999/xlink">
    <defs>
        <path id="path-1" d="M0,0 L1920,0 L1920,1080 L0,1080 L0,0 Z"></path>
    </defs>
    <g id="Page-1" stroke="none" stroke-width="1" fill="none" fill-rule="evenodd">
        <g id="elementer" transform="translate(-124.000000, -306.000000)">
            <path d="M1620.2748,595.371 C1606.7778,595.371 1595.7978,606.351 1595.7978,619.848 L1595.7978,675.794 C1595.7978,689.291 1606.7778,700.271 1620.2748,700.271 C1633.7718,700.271 1644.7518,689.291 1644.7518,675.794 L1644.7518,619.848 C1644.7518,606.351 1633.7718,595.371 1620.2748,595.371 M1620.2748,707.264 C1602.9228,707.264 1588.8048,693.146 1588.8048,675.794 L1588.8048,619.848 C1588.8048,602.496 1602.9228,588.378 1620.2748,588.378 C1637.6268,588.378 1651.7448,602.496 1651.7448,619.848 L1651.7448,675.794 C1651.7448,693.146 1637.6268,707.264 1620.2748,707.264" id="Fill-3" fill="#2E3E4D"></path>
            <path d="M1620.2748,616.3509 C1618.3468,616.3509 1616.7778,617.9199 1616.7778,619.8479 C1616.7778,621.7749 1618.3468,623.3439 1620.2748,623.3439 C1622.2028,623.3439 1623.7718,621.7749 1623.7718,619.8479 C1623.7718,617.9199 1622.2028,616.3509 1620.2748,616.3509 M1620.2748,630.3379 C1614.4898,630.3379 1609.7848,625.6319 1609.7848,619.8479 C1609.7848,614.0629 1614.4898,609.3579 1620.2748,609.3579 C1626.0598,609.3579 1630.7648,614.0629 1630.7648,619.8479 C1630.7648,625.6319 1626.0598,630.3379 1620.2748,630.3379" id="Fill-5" fill="#2E3E4D"></path>
            <path d="M1620.2748,581.3843 C1618.3438,581.3843 1616.7778,579.8183 1616.7778,577.8873 L1616.7778,563.9013 C1616.7778,561.9703 1618.3438,560.4043 1620.2748,560.4043 C1622.2058,560.4043 1623.7718,561.9703 1623.7718,563.9013 L1623.7718,577.8873 C1623.7718,579.8183 1622.2058,581.3843 1620.2748,581.3843" id="Fill-7" fill="#2E3E4D"></path>
            <path d="M1606.2882,584.8828 C1604.8232,584.8828 1603.4592,583.9558 1602.9712,582.4908 L1599.4742,572.0008 C1598.8632,570.1688 1599.8532,568.1888 1601.6852,567.5768 C1603.5202,566.9568 1605.4972,567.9578 1606.1092,569.7878 L1609.6052,580.2778 C1610.2162,582.1098 1609.2262,584.0908 1607.3942,584.7018 C1607.0272,584.8248 1606.6532,584.8828 1606.2882,584.8828" id="Fill-9" fill="#2E3E4D"></path>
            <path d="M1634.2615,584.8828 C1633.8965,584.8828 1633.5225,584.8248 1633.1555,584.7018 C1631.3235,584.0908 1630.3325,582.1098 1630.9445,580.2778 L1634.4405,569.7878 C1635.0525,567.9578 1637.0225,566.9568 1638.8645,567.5768 C1640.6965,568.1888 1641.6865,570.1688 1641.0755,572.0008 L1637.5785,582.4908 C1637.0905,583.9558 1635.7265,584.8828 1634.2615,584.8828" id="Fill-11" fill="#2E3E4D"></path>
            <path d="M646.743,593.9813 L620.488,593.9813 C618.675,593.9813 617.206,592.5133 617.206,590.6993 C617.206,588.8853 618.675,587.4173 620.488,587.4173 L646.743,587.4173 C648.555,587.4173 650.025,588.8853 650.025,590.6993 C650.025,592.5133 648.555,593.9813 646.743,593.9813" id="Fill-13" fill="#2E3E4D"></path>
            <mask id="mask-2" fill="white">
                <use xlink:href="#path-1"></use>
            </mask>
            <g id="Clip-16"></g>
            <path d="M1027.448,630.083 L712.382,630.083 L712.382,669.47 L1027.448,669.47 L1027.448,630.083 Z" id="Fill-15" fill="#DBF286" mask="url(#mask-2)"></path>
            <path d="M715.664,666.187 L1024.166,666.187 L1024.166,633.364 L715.664,633.364 L715.664,666.187 Z M1027.448,672.751 L712.382,672.751 C710.569,672.751 709.1,671.283 709.1,669.469 L709.1,630.083 C709.1,628.269 710.569,626.801 712.382,626.801 L1027.448,626.801 C1029.262,626.801 1030.73,628.269 1030.73,630.083 L1030.73,669.469 C1030.73,671.283 1029.262,672.751 1027.448,672.751 L1027.448,672.751 Z" id="Fill-17" fill="#2E3E4D" mask="url(#mask-2)"></path>
            <path d="M738.6373,672.751 C736.8253,672.751 735.3553,671.283 735.3553,669.469 L735.3553,662.905 C735.3553,661.091 736.8253,659.623 738.6373,659.623 C740.4493,659.623 741.9193,661.091 741.9193,662.905 L741.9193,669.469 C741.9193,671.283 740.4493,672.751 738.6373,672.751" id="Fill-18" fill="#2E3E4D" mask="url(#mask-2)"></path>
            <path d="M764.8928,672.751 C763.0808,672.751 761.6108,671.283 761.6108,669.469 L761.6108,662.905 C761.6108,661.091 763.0808,659.623 764.8928,659.623 C766.7048,659.623 768.1748,661.091 768.1748,662.905 L768.1748,669.469 C768.1748,671.283 766.7048,672.751 764.8928,672.751" id="Fill-19" fill="#2E3E4D" mask="url(#mask-2)"></path>
            <path d="M791.1483,672.751 C789.3363,672.751 787.8663,671.283 787.8663,669.469 L787.8663,662.905 C787.8663,661.091 789.3363,659.623 791.1483,659.623 C792.9603,659.623 794.4303,661.091 794.4303,662.905 L794.4303,669.469 C794.4303,671.283 792.9603,672.751 791.1483,672.751" id="Fill-20" fill="#2E3E4D" mask="url(#mask-2)"></path>
            <path d="M817.4037,672.751 C815.5917,672.751 814.1217,671.283 814.1217,669.469 L814.1217,662.905 C814.1217,661.091 815.5917,659.623 817.4037,659.623 C819.2157,659.623 820.6857,661.091 820.6857,662.905 L820.6857,669.469 C820.6857,671.283 819.2157,672.751 817.4037,672.751" id="Fill-21" fill="#2E3E4D" mask="url(#mask-2)"></path>
            <path d="M843.6592,672.751 C841.8472,672.751 840.3772,671.283 840.3772,669.469 L840.3772,662.905 C840.3772,661.091 841.8472,659.623 843.6592,659.623 C845.4712,659.623 846.9412,661.091 846.9412,662.905 L846.9412,669.469 C846.9412,671.283 845.4712,672.751 843.6592,672.751" id="Fill-22" fill="#2E3E4D" mask="url(#mask-2)"></path>
            <path d="M869.9147,672.751 C868.1027,672.751 866.6327,671.283 866.6327,669.469 L866.6327,662.905 C866.6327,661.091 868.1027,659.623 869.9147,659.623 C871.7267,659.623 873.1967,661.091 873.1967,662.905 L873.1967,669.469 C873.1967,671.283 871.7267,672.751 869.9147,672.751" id="Fill-23" fill="#2E3E4D" mask="url(#mask-2)"></path>
            <path d="M896.1702,672.751 C894.3582,672.751 892.8882,671.283 892.8882,669.469 L892.8882,662.905 C892.8882,661.091 894.3582,659.623 896.1702,659.623 C897.9822,659.623 899.4522,661.091 899.4522,662.905 L899.4522,669.469 C899.4522,671.283 897.9822,672.751 896.1702,672.751" id="Fill-24" fill="#2E3E4D" mask="url(#mask-2)"></path>
            <path d="M922.4257,672.751 C920.6137,672.751 919.1437,671.283 919.1437,669.469 L919.1437,662.905 C919.1437,661.091 920.6137,659.623 922.4257,659.623 C924.2377,659.623 925.7077,661.091 925.7077,662.905 L925.7077,669.469 C925.7077,671.283 924.2377,672.751 922.4257,672.751" id="Fill-25" fill="#2E3E4D" mask="url(#mask-2)"></path>
            <path d="M948.6812,672.751 C946.8672,672.751 945.3992,671.283 945.3992,669.469 L945.3992,662.905 C945.3992,661.091 946.8672,659.623 948.6812,659.623 C950.4952,659.623 951.9632,661.091 951.9632,662.905 L951.9632,669.469 C951.9632,671.283 950.4952,672.751 948.6812,672.751" id="Fill-26" fill="#2E3E4D" mask="url(#mask-2)"></path>
            <path d="M974.9367,672.751 C973.1227,672.751 971.6547,671.283 971.6547,669.469 L971.6547,662.905 C971.6547,661.091 973.1227,659.623 974.9367,659.623 C976.7507,659.623 978.2187,661.091 978.2187,662.905 L978.2187,669.469 C978.2187,671.283 976.7507,672.751 974.9367,672.751" id="Fill-27" fill="#2E3E4D" mask="url(#mask-2)"></path>
            <path d="M1001.1922,672.751 C999.3782,672.751 997.9102,671.283 997.9102,669.469 L997.9102,662.905 C997.9102,661.091 999.3782,659.623 1001.1922,659.623 C1003.0062,659.623 1004.4742,661.091 1004.4742,662.905 L1004.4742,669.469 C1004.4742,671.283 1003.0062,672.751 1001.1922,672.751" id="Fill-28" fill="#2E3E4D" mask="url(#mask-2)"></path>
            <path d="M1083.306,647.17 L1239.46,647.17 L1239.46,626.166 L1083.306,626.166 L1083.306,647.17 Z" id="Fill-29" fill="#707070" mask="url(#mask-2)"></path>
            <path d="M1236.835,628.791 L1075.429,628.791 L1075.429,644.544 L1236.835,644.544 L1236.835,628.791 Z M1242.086,626.165 L1242.086,647.17 C1242.086,648.621 1240.911,649.795 1239.46,649.795 L1072.804,649.795 C1071.353,649.795 1070.178,648.621 1070.178,647.17 L1070.178,626.165 C1070.178,624.714 1071.353,623.54 1072.804,623.54 L1239.46,623.54 C1240.911,623.54 1242.086,624.714 1242.086,626.165 L1242.086,626.165 Z" id="Fill-30" fill="#2E3E4D" mask="url(#mask-2)"></path>
            <path d="M1273.5925,636.6677 C1273.5925,637.7677 1272.8975,638.7907 1271.7975,639.1577 L1240.2915,649.6597 C1238.9145,650.1187 1237.4275,649.3747 1236.9705,648.0007 C1236.5095,646.6167 1237.2555,645.1367 1238.6295,644.6807 L1270.1365,634.1777 C1271.5135,633.7197 1273.0005,634.4627 1273.4565,635.8367 C1273.5485,636.1137 1273.5925,636.3937 1273.5925,636.6677" id="Fill-31" fill="#2E3E4D" mask="url(#mask-2)"></path>
            <path d="M1273.5925,636.6677 C1273.5925,636.9417 1273.5485,637.2217 1273.4565,637.4987 C1273.0005,638.8727 1271.5135,639.6167 1270.1365,639.1577 L1238.6295,628.6547 C1237.2555,628.1987 1236.5095,626.7197 1236.9705,625.3347 C1237.4275,623.9607 1238.9145,623.2167 1240.2915,623.6757 L1271.7975,634.1777 C1272.8975,634.5447 1273.5925,635.5677 1273.5925,636.6677" id="Fill-32" fill="#2E3E4D" mask="url(#mask-2)"></path>
            <path d="M1242.0859,636.6677 C1242.0859,638.1187 1240.9119,639.2937 1239.4599,639.2937 L1083.3059,639.2937 C1081.8549,639.2937 1080.6799,638.1187 1080.6799,636.6677 C1080.6799,635.2167 1081.8549,634.0417 1083.3059,634.0417 L1239.4599,634.0417 C1240.9119,634.0417 1242.0859,635.2167 1242.0859,636.6677" id="Fill-33" fill="#2E3E4D" mask="url(#mask-2)"></path>
            <path d="M1085.9315,626.1655 L1085.9315,647.1695 C1085.9315,648.6215 1084.7575,649.7955 1083.3055,649.7955 C1081.8545,649.7955 1080.6805,648.6215 1080.6805,647.1695 L1080.6805,626.1655 C1080.6805,624.7145 1081.8545,623.5395 1083.3055,623.5395 C1084.7575,623.5395 1085.9315,624.7145 1085.9315,626.1655" id="Fill-34" fill="#2E3E4D" mask="url(#mask-2)"></path>
            <path d="M1263.0903,634.0421 L1263.0903,639.2931 C1263.0903,640.7441 1261.9163,641.9191 1260.4653,641.9191 C1259.0133,641.9191 1257.8393,640.7441 1257.8393,639.2931 L1257.8393,634.0421 C1257.8393,632.5911 1259.0133,631.4161 1260.4653,631.4161 C1261.9163,631.4161 1263.0903,632.5911 1263.0903,634.0421" id="Fill-35" fill="#2E3E4D" mask="url(#mask-2)"></path>
            <path d="M233.2189,630.084 L233.2189,653.058 C233.2189,658.487 237.6349,662.903 243.0649,662.903 L282.4479,662.903 C287.8769,662.903 292.2939,658.487 292.2939,653.058 L292.2939,630.084 L233.2189,630.084 Z M282.4479,669.467 L243.0649,669.467 C234.0169,669.467 226.6549,662.105 226.6549,653.058 L226.6549,626.802 C226.6549,624.99 228.1229,623.52 229.9369,623.52 L295.5759,623.52 C297.3899,623.52 298.8579,624.99 298.8579,626.802 L298.8579,653.058 C298.8579,662.105 291.4959,669.467 282.4479,669.467 L282.4479,669.467 Z" id="Fill-36" fill="#2E3E4D" mask="url(#mask-2)"></path>
            <path d="M311.9854,630.084 L311.9854,653.058 C311.9854,658.487 316.4014,662.903 321.8314,662.903 L361.2144,662.903 C366.6434,662.903 371.0604,658.487 371.0604,653.058 L371.0604,630.084 L311.9854,630.084 Z M361.2144,669.467 L321.8314,669.467 C312.7834,669.467 305.4214,662.105 305.4214,653.058 L305.4214,626.802 C305.4214,624.99 306.8894,623.52 308.7034,623.52 L374.3424,623.52 C376.1564,623.52 377.6244,624.99 377.6244,626.802 L377.6244,653.058 C377.6244,662.105 370.2624,669.467 361.2144,669.467 L361.2144,669.467 Z" id="Fill-37" fill="#2E3E4D" mask="url(#mask-2)"></path>
            <path d="M308.7035,630.084 L295.5755,630.084 C293.7615,630.084 292.2935,628.614 292.2935,626.802 C292.2935,624.99 293.7615,623.52 295.5755,623.52 L308.7035,623.52 C310.5175,623.52 311.9855,624.99 311.9855,626.802 C311.9855,628.614 310.5175,630.084 308.7035,630.084" id="Fill-38" fill="#2E3E4D" mask="url(#mask-2)"></path>
            <path d="M252.9105,676.0312 C251.0965,676.0312 249.6285,674.5612 249.6285,672.7492 C249.6285,655.4362 258.6535,648.7682 266.2235,646.2232 C277.3745,642.4792 369.7815,624.3522 373.7105,623.5812 C375.5025,623.2222 377.2135,624.3932 377.5635,626.1702 C377.9125,627.9492 376.7525,629.6742 374.9735,630.0232 C374.0155,630.2112 279.0635,648.8372 268.3135,652.4452 C260.1575,655.1872 256.1925,661.8282 256.1925,672.7492 C256.1925,674.5612 254.7245,676.0312 252.9105,676.0312" id="Fill-39" fill="#2E3E4D" mask="url(#mask-2)"></path>
            <path d="M351.3687,676.0312 C349.5547,676.0312 348.0867,674.5612 348.0867,672.7492 C348.0867,661.8282 344.1217,655.1872 335.9657,652.4442 C325.2157,648.8372 230.2637,630.2112 229.3057,630.0232 C227.5267,629.6742 226.3667,627.9492 226.7157,626.1702 C227.0657,624.3932 228.7637,623.2222 230.5687,623.5812 C234.4977,624.3522 326.9047,642.4792 338.0547,646.2212 C345.6257,648.7682 354.6507,655.4362 354.6507,672.7492 C354.6507,674.5612 353.1827,676.0312 351.3687,676.0312" id="Fill-40" fill="#2E3E4D" mask="url(#mask-2)"></path>
            <path d="M1512.1041,680.3748 C1505.1471,680.3748 1499.5051,674.7398 1499.5051,667.7748 C1499.5051,660.8108 1505.1471,655.1678 1512.1041,655.1678 L1512.1041,629.9618 C1491.2251,629.9618 1474.2901,646.8898 1474.2901,667.7748 C1474.2901,688.6608 1491.2251,705.5888 1512.1041,705.5888 C1522.5471,705.5888 1532.0001,701.3568 1538.8471,694.5178 L1521.0181,676.6898 C1518.7361,678.9678 1515.5831,680.3748 1512.1041,680.3748" id="Fill-41" fill="#A5ECDE" mask="url(#mask-2)"></path>
            <path d="M1521.0183,658.8612 L1538.8473,641.0322 C1532.0003,634.1942 1522.5473,629.9622 1512.1043,629.9622 L1512.1043,655.1682 C1515.5823,655.1682 1518.7363,656.5792 1521.0183,658.8612" id="Fill-42" fill="#FFFFFF" mask="url(#mask-2)"></path>
            <path d="M1538.847,641.0324 L1521.018,658.8614 C1523.3,661.1434 1524.711,664.2894 1524.711,667.7754 C1524.711,671.2504 1523.3,674.4074 1521.018,676.6894 L1538.847,694.5184 C1545.686,687.6714 1549.918,678.2114 1549.918,667.7754 C1549.918,657.3324 1545.686,647.8754 1538.847,641.0324" id="Fill-43" fill="#DBF286" mask="url(#mask-2)"></path>
            <path d="M1512.1041,633.7431 C1493.3391,633.7431 1478.0721,649.0111 1478.0721,667.7751 C1478.0721,686.5401 1493.3391,701.8081 1512.1041,701.8081 C1530.8691,701.8081 1546.1361,686.5401 1546.1361,667.7751 C1546.1361,649.0111 1530.8691,633.7431 1512.1041,633.7431 M1512.1041,709.3701 C1489.1691,709.3701 1470.5091,690.7111 1470.5091,667.7751 C1470.5091,644.8401 1489.1691,626.1801 1512.1041,626.1801 C1535.0401,626.1801 1553.6991,644.8401 1553.6991,667.7751 C1553.6991,690.7111 1535.0401,709.3701 1512.1041,709.3701" id="Fill-44" fill="#2E3E4D" mask="url(#mask-2)"></path>
            <path d="M1512.1041,658.9496 C1507.2411,658.9496 1503.2861,662.9086 1503.2861,667.7756 C1503.2861,672.6386 1507.2411,676.5936 1512.1041,676.5936 C1516.9711,676.5936 1520.9301,672.6386 1520.9301,667.7756 C1520.9301,662.9086 1516.9711,658.9496 1512.1041,658.9496 M1512.1041,684.1566 C1503.0721,684.1566 1495.7231,676.8076 1495.7231,667.7756 C1495.7231,658.7396 1503.0721,651.3866 1512.1041,651.3866 C1521.1401,651.3866 1528.4921,658.7396 1528.4921,667.7756 C1528.4921,676.8076 1521.1401,684.1566 1512.1041,684.1566" id="Fill-45" fill="#2E3E4D" mask="url(#mask-2)"></path>
            <path d="M1512.1041,658.9496 C1510.0161,658.9496 1508.3231,657.2566 1508.3231,655.1686 L1508.3231,629.9616 C1508.3231,627.8736 1510.0161,626.1806 1512.1041,626.1806 C1514.1921,626.1806 1515.8851,627.8736 1515.8851,629.9616 L1515.8851,655.1686 C1515.8851,657.2566 1514.1921,658.9496 1512.1041,658.9496" id="Fill-46" fill="#2E3E4D" mask="url(#mask-2)"></path>
            <path d="M1521.0183,662.6425 C1520.0513,662.6425 1519.0833,662.2735 1518.3453,661.5345 C1516.8683,660.0575 1516.8683,657.6645 1518.3453,656.1875 L1536.1733,638.3585 C1537.6503,636.8815 1540.0433,636.8815 1541.5203,638.3585 C1542.9973,639.8355 1542.9973,642.2295 1541.5203,643.7065 L1523.6923,661.5345 C1522.9533,662.2735 1521.9863,662.6425 1521.0183,662.6425" id="Fill-47" fill="#2E3E4D" mask="url(#mask-2)"></path>
            <path d="M1538.847,698.2996 C1537.879,698.2996 1536.912,697.9306 1536.173,697.1916 L1518.345,679.3636 C1516.868,677.8856 1516.868,675.4926 1518.345,674.0156 C1519.822,672.5386 1522.215,672.5386 1523.692,674.0156 L1541.52,691.8446 C1542.998,693.3216 1542.998,695.7146 1541.52,697.1916 C1540.782,697.9306 1539.814,698.2996 1538.847,698.2996" id="Fill-48" fill="#2E3E4D" mask="url(#mask-2)"></path>
            <path d="M1106.2142,699.0032 L961.8092,699.0032 C959.9952,699.0032 958.5272,697.5352 958.5272,695.7212 C958.5272,693.9072 959.9952,692.4392 961.8092,692.4392 L1106.2142,692.4392 C1108.0282,692.4392 1109.4962,693.9072 1109.4962,695.7212 C1109.4962,697.5352 1108.0282,699.0032 1106.2142,699.0032" id="Fill-49" fill="#2E3E4D" mask="url(#mask-2)"></path>
            <path d="M1408.1525,528.3425 L1368.7695,528.3425 C1366.9555,528.3425 1365.4875,526.8745 1365.4875,525.0605 C1365.4875,523.2465 1366.9555,521.7785 1368.7695,521.7785 L1408.1525,521.7785 C1409.9665,521.7785 1411.4345,523.2465 1411.4345,525.0605 C1411.4345,526.8745 1409.9665,528.3425 1408.1525,528.3425" id="Fill-50" fill="#2E3E4D" mask="url(#mask-2)"></path>
            <path d="M167.5802,582.7085 L128.1972,582.7085 C126.3842,582.7085 124.9152,581.2385 124.9152,579.4265 C124.9152,577.6145 126.3842,576.1445 128.1972,576.1445 L167.5802,576.1445 C169.3922,576.1445 170.8622,577.6145 170.8622,579.4265 C170.8622,581.2385 169.3922,582.7085 167.5802,582.7085" id="Fill-51" fill="#2E3E4D" mask="url(#mask-2)"></path>
            <path d="M502.3378,502.087 L436.6988,502.087 C434.8868,502.087 433.4168,500.619 433.4168,498.805 C433.4168,496.991 434.8868,495.523 436.6988,495.523 L502.3378,495.523 C504.1498,495.523 505.6198,496.991 505.6198,498.805 C505.6198,500.619 504.1498,502.087 502.3378,502.087" id="Fill-52" fill="#2E3E4D" mask="url(#mask-2)"></path>
            <path d="M607.3597,633.3645 L581.1027,633.3645 C579.2907,633.3645 577.8207,631.8965 577.8207,630.0825 C577.8207,628.2685 579.2907,626.8005 581.1027,626.8005 L607.3597,626.8005 C609.1717,626.8005 610.6417,628.2685 610.6417,630.0825 C610.6417,631.8965 609.1717,633.3645 607.3597,633.3645" id="Fill-53" fill="#2E3E4D" mask="url(#mask-2)"></path>
            <path d="M1744.4241,695.1564 L1731.2961,695.1564 C1729.4821,695.1564 1728.0141,693.6864 1728.0141,691.8744 C1728.0141,690.0624 1729.4821,688.5924 1731.2961,688.5924 L1744.4241,688.5924 C1746.2381,688.5924 1747.7061,690.0624 1747.7061,691.8744 C1747.7061,693.6864 1746.2381,695.1564 1744.4241,695.1564" id="Fill-54" fill="#2E3E4D" mask="url(#mask-2)"></path>
            <path d="M935.5535,712.131 C934.6995,712.131 933.8465,711.769 933.2235,711.179 C932.6325,710.554 932.2715,709.702 932.2715,708.849 C932.2715,707.961 932.6325,707.141 933.2235,706.519 C934.4365,705.304 936.6685,705.304 937.8835,706.519 C938.4735,707.141 938.8355,707.996 938.8355,708.849 C938.8355,709.702 938.4735,710.554 937.8835,711.179 C937.2605,711.769 936.4065,712.131 935.5535,712.131" id="Fill-55" fill="#2E3E4D" mask="url(#mask-2)"></path>
            <path d="M945.3993,708.8491 C945.3993,707.0451 946.8763,705.5671 948.6813,705.5671 C950.4853,705.5671 951.9633,707.0451 951.9633,708.8491 C951.9633,710.6531 950.4853,712.1311 948.6813,712.1311 C946.8763,712.1311 945.3993,710.6531 945.3993,708.8491 M958.5273,708.8491 C958.5273,707.0451 960.0043,705.5671 961.8093,705.5671 C963.6133,705.5671 965.0913,707.0451 965.0913,708.8491 C965.0913,710.6531 963.6133,712.1311 961.8093,712.1311 C960.0043,712.1311 958.5273,710.6531 958.5273,708.8491 M971.6543,708.8491 C971.6543,707.0451 973.1323,705.5671 974.9363,705.5671 C976.7413,705.5671 978.2183,707.0451 978.2183,708.8491 C978.2183,710.6531 976.7413,712.1311 974.9363,712.1311 C973.1323,712.1311 971.6543,710.6531 971.6543,708.8491" id="Fill-56" fill="#2E3E4D" mask="url(#mask-2)"></path>
            <path d="M988.0645,712.131 C987.1765,712.131 986.3565,711.801 985.7345,711.179 C985.1095,710.554 984.7825,709.702 984.7825,708.849 C984.7825,707.996 985.1095,707.141 985.7345,706.519 C986.9815,705.304 989.1475,705.304 990.3945,706.519 C990.9845,707.141 991.3465,707.996 991.3465,708.849 C991.3465,709.702 990.9845,710.554 990.3945,711.179 C989.7695,711.769 988.9175,712.131 988.0645,712.131" id="Fill-57" fill="#2E3E4D" mask="url(#mask-2)"></path>
            <path d="M1391.7427,538.1884 C1391.7427,536.3844 1393.2207,534.9064 1395.0247,534.9064 C1396.8287,534.9064 1398.3067,536.3844 1398.3067,538.1884 C1398.3067,539.9924 1396.8287,541.4704 1395.0247,541.4704 C1393.2207,541.4704 1391.7427,539.9924 1391.7427,538.1884 M1404.8707,538.1884 C1404.8707,536.3844 1406.3477,534.9064 1408.1527,534.9064 C1409.9567,534.9064 1411.4347,536.3844 1411.4347,538.1884 C1411.4347,539.9924 1409.9567,541.4704 1408.1527,541.4704 C1406.3477,541.4704 1404.8707,539.9924 1404.8707,538.1884 M1417.9977,538.1884 C1417.9977,536.3844 1419.4757,534.9064 1421.2797,534.9064 C1423.0847,534.9064 1424.5617,536.3844 1424.5617,538.1884 C1424.5617,539.9924 1423.0847,541.4704 1421.2797,541.4704 C1419.4757,541.4704 1417.9977,539.9924 1417.9977,538.1884" id="Fill-58" fill="#2E3E4D" mask="url(#mask-2)"></path>
            <path d="M538.4391,643.2103 C538.4391,641.4063 539.9151,639.9283 541.7211,639.9283 C543.5251,639.9283 545.0031,641.4063 545.0031,643.2103 C545.0031,645.0143 543.5251,646.4923 541.7211,646.4923 C539.9151,646.4923 538.4391,645.0143 538.4391,643.2103 M551.5671,643.2103 C551.5671,641.4063 553.0431,639.9283 554.8491,639.9283 C556.6531,639.9283 558.1311,641.4063 558.1311,643.2103 C558.1311,645.0143 556.6531,646.4923 554.8491,646.4923 C553.0431,646.4923 551.5671,645.0143 551.5671,643.2103 M564.6941,643.2103 C564.6941,641.4063 566.1701,639.9283 567.9761,639.9283 C569.7811,639.9283 571.2581,641.4063 571.2581,643.2103 C571.2581,645.0143 569.7811,646.4923 567.9761,646.4923 C566.1701,646.4923 564.6941,645.0143 564.6941,643.2103 M577.8221,643.2103 C577.8221,641.4063 579.2981,639.9283 581.1041,639.9283 C582.9091,639.9283 584.3861,641.4063 584.3861,643.2103 C584.3861,645.0143 582.9091,646.4923 581.1041,646.4923 C579.2981,646.4923 577.8221,645.0143 577.8221,643.2103 M590.9501,643.2103 C590.9501,641.4063 592.4261,639.9283 594.2321,639.9283 C596.0361,639.9283 597.5141,641.4063 597.5141,643.2103 C597.5141,645.0143 596.0361,646.4923 594.2321,646.4923 C592.4261,646.4923 590.9501,645.0143 590.9501,643.2103" id="Fill-59" fill="#2E3E4D" mask="url(#mask-2)"></path>
            <path d="M446.5448,511.9329 C446.5448,510.1289 448.0208,508.6509 449.8268,508.6509 C451.6308,508.6509 453.1088,510.1289 453.1088,511.9329 C453.1088,513.7369 451.6308,515.2149 449.8268,515.2149 C448.0208,515.2149 446.5448,513.7369 446.5448,511.9329 M459.6728,511.9329 C459.6728,510.1289 461.1488,508.6509 462.9548,508.6509 C464.7588,508.6509 466.2368,510.1289 466.2368,511.9329 C466.2368,513.7369 464.7588,515.2149 462.9548,515.2149 C461.1488,515.2149 459.6728,513.7369 459.6728,511.9329 M472.7998,511.9329 C472.7998,510.1289 474.2758,508.6509 476.0818,508.6509 C477.8868,508.6509 479.3638,510.1289 479.3638,511.9329 C479.3638,513.7369 477.8868,515.2149 476.0818,515.2149 C474.2758,515.2149 472.7998,513.7369 472.7998,511.9329" id="Fill-60" fill="#2E3E4D" mask="url(#mask-2)"></path>
            <path d="M210.2453,578.76 C210.2453,576.954 211.7213,575.478 213.5273,575.478 C215.3313,575.478 216.8093,576.954 216.8093,578.76 C216.8093,580.564 215.3313,582.042 213.5273,582.042 C211.7213,582.042 210.2453,580.564 210.2453,578.76 M223.3733,578.76 C223.3733,576.954 224.8493,575.478 226.6553,575.478 C228.4593,575.478 229.9373,576.954 229.9373,578.76 C229.9373,580.564 228.4593,582.042 226.6553,582.042 C224.8493,582.042 223.3733,580.564 223.3733,578.76 M236.5003,578.76 C236.5003,576.954 237.9763,575.478 239.7823,575.478 C241.5873,575.478 243.0643,576.954 243.0643,578.76 C243.0643,580.564 241.5873,582.042 239.7823,582.042 C237.9763,582.042 236.5003,580.564 236.5003,578.76" id="Fill-61" fill="#2E3E4D" mask="url(#mask-2)"></path>
            <path d="M656.5888,682.5936 C656.5888,680.7896 658.0648,679.3116 659.8708,679.3116 C661.6748,679.3116 663.1528,680.7896 663.1528,682.5936 C663.1528,684.3976 661.6748,685.8756 659.8708,685.8756 C658.0648,685.8756 656.5888,684.3976 656.5888,682.5936 M669.7168,682.5936 C669.7168,680.7896 671.1928,679.3116 672.9988,679.3116 C674.8028,679.3116 676.2808,680.7896 676.2808,682.5936 C676.2808,684.3976 674.8028,685.8756 672.9988,685.8756 C671.1928,685.8756 669.7168,684.3976 669.7168,682.5936" id="Fill-62" fill="#2E3E4D" mask="url(#mask-2)"></path>
            <path d="M1312.9762,635.3601 C1312.9762,633.5561 1314.4542,632.0781 1316.2582,632.0781 C1318.0622,632.0781 1319.5402,633.5561 1319.5402,635.3601 C1319.5402,637.1641 1318.0622,638.6421 1316.2582,638.6421 C1314.4542,638.6421 1312.9762,637.1641 1312.9762,635.3601 M1326.1042,635.3601 C1326.1042,633.5561 1327.5812,632.0781 1329.3862,632.0781 C1331.1902,632.0781 1332.6682,633.5561 1332.6682,635.3601 C1332.6682,637.1641 1331.1902,638.6421 1329.3862,638.6421 C1327.5812,638.6421 1326.1042,637.1641 1326.1042,635.3601 M1339.2312,635.3601 C1339.2312,633.5561 1340.7092,632.0781 1342.5132,632.0781 C1344.3182,632.0781 1345.7952,633.5561 1345.7952,635.3601 C1345.7952,637.1641 1344.3182,638.6421 1342.5132,638.6421 C1340.7092,638.6421 1339.2312,637.1641 1339.2312,635.3601 M1352.3592,635.3601 C1352.3592,633.5561 1353.8372,632.0781 1355.6412,632.0781 C1357.4462,632.0781 1358.9232,633.5561 1358.9232,635.3601 C1358.9232,637.1641 1357.4462,638.6421 1355.6412,638.6421 C1353.8372,638.6421 1352.3592,637.1641 1352.3592,635.3601" id="Fill-63" fill="#2E3E4D" mask="url(#mask-2)"></path>
            <path d="M1161.3822,686.0068 C1159.5452,685.8078 1158.2632,684.1668 1158.4942,682.3948 C1158.6932,680.5898 1160.2992,679.2798 1162.1062,679.5068 C1163.9112,679.7058 1165.1892,681.3468 1164.9942,683.1198 C1164.7952,684.7918 1163.3852,686.0388 1161.7442,686.0388 C1161.6132,686.0388 1161.4812,686.0388 1161.3822,686.0068 L1161.3822,686.0068 Z M1146.2192,685.5128 C1145.5652,683.8408 1146.4182,681.9368 1148.0912,681.2798 C1149.7992,680.6228 1151.7002,681.4788 1152.3572,683.1508 C1153.0142,684.8568 1152.1612,686.7598 1150.4532,687.4168 C1150.0942,687.5488 1149.6682,687.6158 1149.2732,687.6158 C1147.9592,687.6158 1146.7122,686.8268 1146.2192,685.5128 L1146.2192,685.5128 Z M1171.6542,689.8468 L1171.6542,689.8468 C1170.1442,688.8268 1169.7502,686.7958 1170.8022,685.2828 C1171.8212,683.8078 1173.8532,683.4138 1175.3302,684.4298 C1176.8402,685.4488 1177.2342,687.4848 1176.2182,688.9938 C1175.5612,689.9108 1174.5422,690.4358 1173.4942,690.4358 C1172.8692,690.4358 1172.2122,690.2408 1171.6542,689.8468 L1171.6542,689.8468 Z M1136.8352,694.0128 C1135.4572,692.7988 1135.3252,690.7308 1136.5052,689.3528 L1136.5402,689.3528 C1137.7192,688.0068 1139.7872,687.8758 1141.1652,689.0578 C1142.5112,690.2408 1142.6422,692.3398 1141.4632,693.6858 C1140.8062,694.4398 1139.9182,694.8018 1139.0012,694.8018 C1138.2132,694.8018 1137.4562,694.5388 1136.8352,694.0128 L1136.8352,694.0128 Z M1179.0062,698.0198 C1178.1542,696.4428 1178.7432,694.4398 1180.3522,693.5868 C1181.9262,692.7338 1183.9292,693.3238 1184.7822,694.9328 C1185.6372,696.5418 1185.0442,698.5098 1183.4392,699.3628 C1182.9452,699.6248 1182.4202,699.7568 1181.8942,699.7568 C1180.7152,699.7568 1179.5962,699.1348 1179.0062,698.0198 L1179.0062,698.0198 Z M1132.4372,705.8618 C1130.6652,705.4358 1129.5822,703.6628 1130.0082,701.8908 C1130.4342,700.1508 1132.2072,699.0358 1133.9792,699.4938 C1135.7192,699.8878 1136.7992,701.6608 1136.3732,703.4328 C1136.0142,704.9418 1134.6682,705.9608 1133.1902,705.9608 C1132.9602,705.9608 1132.6972,705.9258 1132.4372,705.8618 L1132.4372,705.8618 Z M1181.6992,708.8488 L1181.6992,708.7498 L1181.6992,708.6858 C1181.6662,706.8458 1183.1412,705.3688 1184.9482,705.3688 C1186.7532,705.3368 1188.2302,706.8138 1188.2622,708.6188 L1188.2622,708.7498 L1188.2622,708.8488 C1188.2622,710.6538 1186.7852,712.1308 1184.9812,712.1308 C1183.1762,712.1308 1181.6992,710.6538 1181.6992,708.8488 L1181.6992,708.8488 Z M1130.0722,716.0028 L1130.0722,716.0028 C1129.6142,714.2628 1130.6972,712.4578 1132.4702,712.0318 C1134.2102,711.6048 1135.9792,712.6568 1136.4412,714.4288 C1136.8672,716.1658 1135.7842,717.9738 1134.0432,718.3998 C1133.7802,718.4638 1133.4862,718.4968 1133.2232,718.4968 C1131.7802,718.4968 1130.4342,717.5118 1130.0722,716.0028 L1130.0722,716.0028 Z M1180.4522,723.9448 C1178.8432,723.0918 1178.2182,721.1238 1179.0742,719.5158 C1179.9262,717.9068 1181.8942,717.2818 1183.5032,718.1368 C1185.1122,718.9898 1185.7342,720.9578 1184.8812,722.5668 C1184.2912,723.6818 1183.1412,724.3068 1181.9612,724.3068 C1181.4682,724.3068 1180.9422,724.2078 1180.4522,723.9448 L1180.4522,723.9448 Z M1136.6712,728.5088 L1136.6712,728.5088 C1135.4572,727.1268 1135.5882,725.0598 1136.9312,723.8448 C1138.2772,722.6658 1140.3442,722.7648 1141.5592,724.1438 C1142.7732,725.4858 1142.6422,727.5568 1141.2962,728.7678 C1140.6742,729.3288 1139.8862,729.5888 1139.1332,729.5888 C1138.2132,729.5888 1137.3252,729.2298 1136.6712,728.5088 L1136.6712,728.5088 Z M1170.9652,732.3128 C1169.9492,730.8038 1170.3112,728.7678 1171.7852,727.7528 C1173.2952,726.7008 1175.3302,727.0958 1176.3492,728.5728 C1177.3982,730.0508 1177.0032,732.1178 1175.5292,733.1338 C1174.9712,733.5278 1174.3142,733.7268 1173.6572,733.7268 C1172.6062,733.7268 1171.5902,733.2328 1170.9652,732.3128 L1170.9652,732.3128 Z M1148.3222,736.4828 C1146.6132,735.8578 1145.7612,733.9538 1146.3862,732.2488 C1147.0402,730.5758 1148.9432,729.7198 1150.6202,730.3448 C1152.3252,731.0018 1153.1772,732.8708 1152.5202,734.5788 C1152.0302,735.8928 1150.7832,736.7138 1149.4692,736.7138 C1149.0752,736.7138 1148.6812,736.6458 1148.3222,736.4828 L1148.3222,736.4828 Z M1158.6582,735.2998 C1158.4622,733.4958 1159.7412,731.8548 1161.5452,731.6588 C1163.3182,731.4288 1164.9592,732.7068 1165.1892,734.5118 C1165.4202,736.3188 1164.1382,737.9598 1162.3342,738.1558 C1162.2032,738.1878 1162.0712,738.1878 1161.9402,738.1878 C1160.2992,738.1878 1158.8882,736.9728 1158.6582,735.2998 L1158.6582,735.2998 Z" id="Fill-64" fill="#2E3E4D" mask="url(#mask-2)"></path>
            <path d="M1829.1968,527.5245 L1829.1618,527.5245 C1827.3928,527.2295 1826.1778,525.5235 1826.4728,523.7505 C1826.7668,521.9445 1828.4728,520.7315 1830.2448,521.0585 C1832.0178,521.3545 1833.2318,523.0275 1832.9368,524.8005 C1832.6738,526.4095 1831.2958,527.5565 1829.7228,527.5565 C1829.5558,527.5565 1829.3598,527.5565 1829.1968,527.5245 M1813.6718,528.3775 C1812.7518,526.8355 1813.2778,524.8335 1814.8218,523.8825 C1816.3958,522.9625 1818.3988,523.4875 1819.3158,525.0635 C1820.2358,526.6065 1819.7098,528.6395 1818.1678,529.5595 C1817.6428,529.8545 1817.0528,530.0185 1816.4958,530.0185 C1815.3798,530.0185 1814.2968,529.4285 1813.6718,528.3775 M1838.9428,533.0385 C1837.7608,531.6595 1837.8918,529.5915 1839.3058,528.4105 C1840.6478,527.2295 1842.7188,527.3615 1843.8988,528.7715 C1845.0808,530.1495 1844.9498,532.2185 1843.5718,533.3995 C1842.9458,533.9245 1842.1928,534.1865 1841.4368,534.1865 C1840.4848,534.1865 1839.5678,533.7935 1838.9428,533.0385 M1806.8128,540.1605 C1805.1078,539.5685 1804.2198,537.6985 1804.8098,535.9925 C1805.4348,534.2855 1807.3068,533.3995 1809.0118,533.9905 C1810.7198,534.5805 1811.6048,536.4845 1811.0148,538.1905 C1810.5208,539.5375 1809.2748,540.3575 1807.9278,540.3575 C1807.5338,540.3575 1807.1748,540.2915 1806.8128,540.1605 M1842.8818,543.7055 L1842.8818,543.7055 L1842.8818,543.5075 C1842.8498,541.7015 1844.3248,540.2255 1846.1318,540.1925 C1847.9368,540.1605 1849.4138,541.6365 1849.4458,543.4425 L1849.4458,543.5735 L1849.4458,543.7055 C1849.4458,545.5095 1847.9688,546.9875 1846.1638,546.9875 C1844.3598,546.9875 1842.8818,545.5095 1842.8818,543.7055 M1804.9088,551.6795 C1804.2868,549.9725 1805.1718,548.0685 1806.8448,547.4455 C1808.5528,546.8215 1810.4568,547.7085 1811.0788,549.4145 L1811.0788,549.3825 C1811.7038,551.0895 1810.8158,552.9915 1809.1428,553.6165 C1808.7488,553.7485 1808.3898,553.8125 1807.9958,553.8125 C1806.6498,553.8125 1805.4028,552.9915 1804.9088,551.6795 M1839.4688,558.8665 C1838.0588,557.6855 1837.8918,555.6185 1839.0428,554.2405 C1840.2218,552.8615 1842.2888,552.6645 1843.6708,553.8125 C1845.0808,554.9945 1845.2438,557.0615 1844.0968,558.4395 C1843.4398,559.2285 1842.4878,559.6215 1841.5678,559.6215 C1840.8148,559.6215 1840.0588,559.3595 1839.4688,558.8665 M1815.0498,563.6575 C1813.4758,562.7395 1812.9508,560.7385 1813.8348,559.1625 C1814.7548,557.5875 1816.7578,557.0615 1818.3318,557.9485 C1819.8768,558.8665 1820.4348,560.8695 1819.5458,562.4445 C1818.9248,563.4945 1817.8058,564.0855 1816.6908,564.0855 C1816.1328,564.0855 1815.5758,563.9545 1815.0498,563.6575 M1826.6998,563.6575 C1826.4048,561.8865 1827.5878,560.1805 1829.3598,559.8515 C1831.1328,559.5555 1832.8378,560.7385 1833.1678,562.5105 C1833.4948,564.3145 1832.2798,565.9895 1830.5078,566.3165 C1830.3118,566.3505 1830.1138,566.3825 1829.9498,566.3825 C1828.3768,566.3825 1826.9988,565.2665 1826.6998,563.6575" id="Fill-65" fill="#2E3E4D" mask="url(#mask-2)"></path>
            <path d="M406.5702,554.8254 L406.5702,554.8254 C404.7982,554.5304 403.5832,552.8254 403.8792,551.0534 C404.1742,549.2484 405.8812,548.0344 407.6532,548.3284 C409.4582,548.6234 410.6412,550.3324 410.3782,552.1044 C410.0812,553.7104 408.7032,554.8604 407.1282,554.8604 C406.9642,554.8604 406.7672,554.8604 406.5702,554.8254 L406.5702,554.8254 Z M391.0792,555.6814 C390.1602,554.1364 390.6862,552.1044 392.2282,551.1844 C393.8032,550.2644 395.8062,550.7904 396.7242,552.3644 C397.6422,553.9084 397.1182,555.9444 395.5752,556.8604 C395.0512,557.1584 394.4602,557.2864 393.9022,557.2864 C392.7852,557.2864 391.6702,556.7294 391.0792,555.6814 L391.0792,555.6814 Z M416.3502,560.3414 C415.1692,558.9634 415.3322,556.8604 416.7112,555.7134 C418.0892,554.5304 420.1582,554.6624 421.3072,556.0404 C422.4882,557.4184 422.3562,559.4884 420.9782,560.6684 C420.3552,561.2254 419.6002,561.4884 418.8452,561.4884 C417.9252,561.4884 417.0072,561.0944 416.3502,560.3414 L416.3502,560.3414 Z M384.2202,567.4624 C382.5132,566.8734 381.6272,565.0014 382.2512,563.2934 C382.8422,561.5884 384.7122,560.6684 386.4192,561.2934 C388.1252,561.9154 389.0112,563.7864 388.4222,565.4914 C387.9282,566.8384 386.6812,567.6584 385.3352,567.6584 C384.9752,567.6584 384.5802,567.5944 384.2202,567.4624 L384.2202,567.4624 Z M420.2892,571.0074 L420.2892,570.9084 L420.2892,570.8094 C420.2552,569.0044 421.7332,567.5274 423.5372,567.4954 C425.3432,567.4624 426.8192,568.9404 426.8532,570.7444 L426.8532,570.8094 L426.8532,571.0074 C426.8532,572.8124 425.3752,574.2894 423.5712,574.2894 C421.7652,574.2894 420.2892,572.8124 420.2892,571.0074 L420.2892,571.0074 Z M382.3162,578.9814 C381.6932,577.2764 382.5792,575.3734 384.2532,574.7474 C385.9602,574.1264 387.8622,575.0104 388.4882,576.6834 C389.1112,578.3924 388.2562,580.2954 386.5502,580.9174 C386.1562,581.0494 385.7952,581.1164 385.4012,581.1164 C384.0572,581.1164 382.8082,580.2954 382.3162,578.9814 L382.3162,578.9814 Z M416.8762,586.1704 C415.4982,584.9884 415.3012,582.9204 416.4482,581.5424 C417.6302,580.1324 419.6982,579.9654 421.0762,581.1164 C422.4882,582.2954 422.6512,584.3624 421.5022,585.7444 C420.8472,586.5294 419.9272,586.9234 418.9752,586.9234 C418.2202,586.9234 417.4992,586.6604 416.8762,586.1704 L416.8762,586.1704 Z M392.4582,590.9624 C390.8832,590.0424 390.3582,588.0394 391.2442,586.4654 C392.1622,584.8884 394.1652,584.3624 395.7402,585.2504 C397.3162,586.1704 397.8402,588.1704 396.9532,589.7154 C396.3302,590.7984 395.2152,591.3884 394.0992,591.3884 C393.5402,591.3884 392.9822,591.2254 392.4582,590.9624 L392.4582,590.9624 Z M404.1092,590.9624 C403.8142,589.1894 404.9952,587.4814 406.7672,587.1544 C408.5722,586.8244 410.2782,588.0394 410.5752,589.8114 C410.9012,591.5834 409.7212,593.3244 407.9162,593.6184 C407.7192,593.6514 407.5222,593.6864 407.3592,593.6864 C405.7822,593.6864 404.4042,592.5674 404.1092,590.9624 L404.1092,590.9624 Z" id="Fill-66" fill="#2E3E4D" mask="url(#mask-2)"></path>
            <path d="M1224.3639,699.0032 C1218.9349,699.0032 1214.5179,703.4202 1214.5179,708.8492 C1214.5179,714.2782 1218.9349,718.6952 1224.3639,718.6952 C1229.7929,718.6952 1234.2099,714.2782 1234.2099,708.8492 C1234.2099,703.4202 1229.7929,699.0032 1224.3639,699.0032 M1224.3639,725.2592 C1215.3159,725.2592 1207.9539,717.8962 1207.9539,708.8492 C1207.9539,699.8012 1215.3159,692.4392 1224.3639,692.4392 C1233.4119,692.4392 1240.7739,699.8012 1240.7739,708.8492 C1240.7739,717.8962 1233.4119,725.2592 1224.3639,725.2592" id="Fill-67" fill="#2E3E4D" mask="url(#mask-2)"></path>
            <path d="M1711.0402,577.0067 C1705.6112,577.0067 1701.1942,581.4237 1701.1942,586.8527 C1701.1942,592.2797 1705.6112,596.6967 1711.0402,596.6967 C1716.4692,596.6967 1720.8862,592.2797 1720.8862,586.8527 C1720.8862,581.4237 1716.4692,577.0067 1711.0402,577.0067 M1711.0402,603.2607 C1701.9922,603.2607 1694.6302,595.8997 1694.6302,586.8527 C1694.6302,577.8047 1701.9922,570.4427 1711.0402,570.4427 C1720.0882,570.4427 1727.4502,577.8047 1727.4502,586.8527 C1727.4502,595.8997 1720.0882,603.2607 1711.0402,603.2607" id="Fill-68" fill="#2E3E4D" mask="url(#mask-2)"></path>
            <path d="M436.699,607.109 C431.27,607.109 426.853,611.526 426.853,616.955 C426.853,622.384 431.27,626.801 436.699,626.801 C442.128,626.801 446.545,622.384 446.545,616.955 C446.545,611.526 442.128,607.109 436.699,607.109 M436.699,633.364 C427.651,633.364 420.289,626.002 420.289,616.955 C420.289,607.907 427.651,600.545 436.699,600.545 C445.747,600.545 453.109,607.907 453.109,616.955 C453.109,626.002 445.747,633.364 436.699,633.364" id="Fill-69" fill="#2E3E4D" mask="url(#mask-2)"></path>
            <path d="M810.8398,751.5143 C809.0308,751.5143 807.5578,752.9853 807.5578,754.7963 C807.5578,756.6073 809.0308,758.0783 810.8398,758.0783 C812.6488,758.0783 814.1218,756.6073 814.1218,754.7963 C814.1218,752.9853 812.6488,751.5143 810.8398,751.5143 M810.8398,764.6423 C805.4108,764.6423 800.9938,760.2253 800.9938,754.7963 C800.9938,749.3673 805.4108,744.9503 810.8398,744.9503 C816.2688,744.9503 820.6858,749.3673 820.6858,754.7963 C820.6858,760.2253 816.2688,764.6423 810.8398,764.6423" id="Fill-70" fill="#2E3E4D" mask="url(#mask-2)"></path>
            <path d="M1737.8602,629.5177 C1736.0492,629.5177 1734.5782,630.9907 1734.5782,632.7997 C1734.5782,634.6087 1736.0492,636.0817 1737.8602,636.0817 C1739.6712,636.0817 1741.1422,634.6087 1741.1422,632.7997 C1741.1422,630.9907 1739.6712,629.5177 1737.8602,629.5177 M1737.8602,642.6457 C1732.4312,642.6457 1728.0142,638.2287 1728.0142,632.7997 C1728.0142,627.3707 1732.4312,622.9537 1737.8602,622.9537 C1743.2892,622.9537 1747.7062,627.3707 1747.7062,632.7997 C1747.7062,638.2287 1743.2892,642.6457 1737.8602,642.6457" id="Fill-71" fill="#2E3E4D" mask="url(#mask-2)"></path>
            <path d="M601.3823,685.8755 C599.5733,685.8755 598.1003,687.3465 598.1003,689.1575 C598.1003,690.9685 599.5733,692.4395 601.3823,692.4395 C603.1913,692.4395 604.6643,690.9685 604.6643,689.1575 C604.6643,687.3465 603.1913,685.8755 601.3823,685.8755 M601.3823,699.0035 C595.9533,699.0035 591.5363,694.5865 591.5363,689.1575 C591.5363,683.7285 595.9533,679.3115 601.3823,679.3115 C606.8113,679.3115 611.2283,683.7285 611.2283,689.1575 C611.2283,694.5865 606.8113,699.0035 601.3823,699.0035" id="Fill-72" fill="#2E3E4D" mask="url(#mask-2)"></path>
            <path d="M338.2409,410.1928 C336.4319,410.1928 334.9589,411.6638 334.9589,413.4748 C334.9589,415.2858 336.4319,416.7568 338.2409,416.7568 C340.0499,416.7568 341.5229,415.2858 341.5229,413.4748 C341.5229,411.6638 340.0499,410.1928 338.2409,410.1928 M338.2409,423.3208 C332.8119,423.3208 328.3949,418.9038 328.3949,413.4748 C328.3949,408.0458 332.8119,403.6288 338.2409,403.6288 C343.6699,403.6288 348.0869,408.0458 348.0869,413.4748 C348.0869,418.9038 343.6699,423.3208 338.2409,423.3208" id="Fill-73" fill="#2E3E4D" mask="url(#mask-2)"></path>
            <path d="M1211.2362,751.5143 L1198.1082,751.5143 C1196.2942,751.5143 1194.8262,750.0463 1194.8262,748.2323 C1194.8262,746.4183 1196.2942,744.9503 1198.1082,744.9503 L1211.2362,744.9503 C1213.0502,744.9503 1214.5182,746.4183 1214.5182,748.2323 C1214.5182,750.0463 1213.0502,751.5143 1211.2362,751.5143" id="Fill-74" fill="#2E3E4D" mask="url(#mask-2)"></path>
            <path d="M646.743,712.131 L633.615,712.131 C631.803,712.131 630.333,710.663 630.333,708.849 C630.333,707.035 631.803,705.567 633.615,705.567 L646.743,705.567 C648.555,705.567 650.025,707.035 650.025,708.849 C650.025,710.663 648.555,712.131 646.743,712.131" id="Fill-75" fill="#2E3E4D" mask="url(#mask-2)"></path>
            <path d="M423.5713,685.8755 L410.4433,685.8755 C408.6313,685.8755 407.1613,684.4075 407.1613,682.5935 C407.1613,680.7795 408.6313,679.3115 410.4433,679.3115 L423.5713,679.3115 C425.3833,679.3115 426.8533,680.7795 426.8533,682.5935 C426.8533,684.4075 425.3833,685.8755 423.5713,685.8755" id="Fill-76" fill="#2E3E4D" mask="url(#mask-2)"></path>
            <path d="M1303.1304,699.0032 L1290.0024,699.0032 C1288.1884,699.0032 1286.7204,697.5352 1286.7204,695.7212 C1286.7204,693.9072 1288.1884,692.4392 1290.0024,692.4392 L1303.1304,692.4392 C1304.9444,692.4392 1306.4124,693.9072 1306.4124,695.7212 C1306.4124,697.5352 1304.9444,699.0032 1303.1304,699.0032" id="Fill-77" fill="#2E3E4D" mask="url(#mask-2)"></path>
            <path d="M1414.8483,581.674 L1408.2843,581.674 C1406.4703,581.674 1405.0023,580.206 1405.0023,578.392 C1405.0023,576.578 1406.4703,575.11 1408.2843,575.11 L1414.8483,575.11 C1416.6623,575.11 1418.1303,576.578 1418.1303,578.392 C1418.1303,580.206 1416.6623,581.674 1414.8483,581.674" id="Fill-78" fill="#2E3E4D" mask="url(#mask-2)"></path>
            <path d="M1565.6854,383.9373 L1552.5574,383.9373 C1550.7434,383.9373 1549.2754,382.4693 1549.2754,380.6553 C1549.2754,378.8413 1550.7434,377.3733 1552.5574,377.3733 L1565.6854,377.3733 C1567.4994,377.3733 1568.9674,378.8413 1568.9674,380.6553 C1568.9674,382.4693 1567.4994,383.9373 1565.6854,383.9373" id="Fill-79" fill="#2E3E4D" mask="url(#mask-2)"></path>
            <path d="M239.7828,476.2985 L226.6548,476.2985 C224.8428,476.2985 223.3728,474.8305 223.3728,473.0165 C223.3728,471.2025 224.8428,469.7345 226.6548,469.7345 L239.7828,469.7345 C241.5948,469.7345 243.0648,471.2025 243.0648,473.0165 C243.0648,474.8305 241.5948,476.2985 239.7828,476.2985" id="Fill-80" fill="#2E3E4D" mask="url(#mask-2)"></path>
            <path d="M1421.2802,692.4394 C1419.4662,692.4394 1417.9982,690.9714 1417.9982,689.1574 L1417.9982,676.0294 C1417.9982,674.2154 1419.4662,672.7474 1421.2802,672.7474 C1423.0942,672.7474 1424.5622,674.2154 1424.5622,676.0294 L1424.5622,689.1574 C1424.5622,690.9714 1423.0942,692.4394 1421.2802,692.4394" id="Fill-81" fill="#2E3E4D" mask="url(#mask-2)"></path>
            <path d="M1427.844,685.8755 L1414.716,685.8755 C1412.902,685.8755 1411.434,684.4075 1411.434,682.5935 C1411.434,680.7795 1412.902,679.3115 1414.716,679.3115 L1427.844,679.3115 C1429.658,679.3115 1431.126,680.7795 1431.126,682.5935 C1431.126,684.4075 1429.658,685.8755 1427.844,685.8755" id="Fill-82" fill="#2E3E4D" mask="url(#mask-2)"></path>
            <path d="M497.4314,738.3205 C495.6194,738.3205 494.1494,736.8525 494.1494,735.0385 L494.1494,721.9105 C494.1494,720.0965 495.6194,718.6285 497.4314,718.6285 C499.2434,718.6285 500.7134,720.0965 500.7134,721.9105 L500.7134,735.0385 C500.7134,736.8525 499.2434,738.3205 497.4314,738.3205" id="Fill-83" fill="#2E3E4D" mask="url(#mask-2)"></path>
            <path d="M503.9952,731.7566 L490.8672,731.7566 C489.0552,731.7566 487.5852,730.2886 487.5852,728.4746 C487.5852,726.6606 489.0552,725.1926 490.8672,725.1926 L503.9952,725.1926 C505.8072,725.1926 507.2772,726.6606 507.2772,728.4746 C507.2772,730.2886 505.8072,731.7566 503.9952,731.7566" id="Fill-84" fill="#2E3E4D" mask="url(#mask-2)"></path>
            <path d="M200.3995,639.3635 C198.5875,639.3635 197.1175,637.8935 197.1175,636.0815 L197.1175,622.9535 C197.1175,621.1415 198.5875,619.6715 200.3995,619.6715 C202.2115,619.6715 203.6815,621.1415 203.6815,622.9535 L203.6815,636.0815 C203.6815,637.8935 202.2115,639.3635 200.3995,639.3635" id="Fill-85" fill="#2E3E4D" mask="url(#mask-2)"></path>
            <path d="M206.9634,632.7996 L193.8354,632.7996 C192.0234,632.7996 190.5534,631.3296 190.5534,629.5176 C190.5534,627.7056 192.0234,626.2356 193.8354,626.2356 L206.9634,626.2356 C208.7754,626.2356 210.2454,627.7056 210.2454,629.5176 C210.2454,631.3296 208.7754,632.7996 206.9634,632.7996" id="Fill-86" fill="#2E3E4D" mask="url(#mask-2)"></path>
            <path d="M1796.9352,688.5925 C1795.1212,688.5925 1793.6532,687.1225 1793.6532,685.3105 L1793.6532,672.1825 C1793.6532,670.3705 1795.1212,668.9005 1796.9352,668.9005 C1798.7492,668.9005 1800.2172,670.3705 1800.2172,672.1825 L1800.2172,685.3105 C1800.2172,687.1225 1798.7492,688.5925 1796.9352,688.5925" id="Fill-87" fill="#2E3E4D" mask="url(#mask-2)"></path>
            <path d="M1803.499,682.0287 L1790.371,682.0287 C1788.557,682.0287 1787.089,680.5587 1787.089,678.7467 C1787.089,676.9347 1788.557,675.4647 1790.371,675.4647 L1803.499,675.4647 C1805.313,675.4647 1806.781,676.9347 1806.781,678.7467 C1806.781,680.5587 1805.313,682.0287 1803.499,682.0287" id="Fill-88" fill="#2E3E4D" mask="url(#mask-2)"></path>
            <path d="M1836.8827,589.2724 L1810.6257,589.2724 C1808.8137,589.2724 1807.3437,587.8044 1807.3437,585.9904 C1807.3437,584.1764 1808.8137,582.7084 1810.6257,582.7084 L1836.8827,582.7084 C1838.6947,582.7084 1840.1647,584.1764 1840.1647,585.9904 C1840.1647,587.8044 1838.6947,589.2724 1836.8827,589.2724" id="Fill-89" fill="#2E3E4D" mask="url(#mask-2)"></path>
            <path d="M1767.9619,599.1182 C1767.9619,597.3142 1769.4379,595.8362 1771.2439,595.8362 C1773.0479,595.8362 1774.5259,597.3142 1774.5259,599.1182 C1774.5259,600.9222 1773.0479,602.4002 1771.2439,602.4002 C1769.4379,602.4002 1767.9619,600.9222 1767.9619,599.1182 M1781.0899,599.1182 C1781.0899,597.3142 1782.5659,595.8362 1784.3719,595.8362 C1786.1759,595.8362 1787.6539,597.3142 1787.6539,599.1182 C1787.6539,600.9222 1786.1759,602.4002 1784.3719,602.4002 C1782.5659,602.4002 1781.0899,600.9222 1781.0899,599.1182 M1794.2169,599.1182 C1794.2169,597.3142 1795.6929,595.8362 1797.4989,595.8362 C1799.3039,595.8362 1800.7809,597.3142 1800.7809,599.1182 C1800.7809,600.9222 1799.3039,602.4002 1797.4989,602.4002 C1795.6929,602.4002 1794.2169,600.9222 1794.2169,599.1182 M1807.3449,599.1182 C1807.3449,597.3142 1808.8209,595.8362 1810.6269,595.8362 C1812.4319,595.8362 1813.9089,597.3142 1813.9089,599.1182 C1813.9089,600.9222 1812.4319,602.4002 1810.6269,602.4002 C1808.8209,602.4002 1807.3449,600.9222 1807.3449,599.1182 M1820.4729,599.1182 C1820.4729,597.3142 1821.9489,595.8362 1823.7549,595.8362 C1825.5589,595.8362 1827.0369,597.3142 1827.0369,599.1182 C1827.0369,600.9222 1825.5589,602.4002 1823.7549,602.4002 C1821.9489,602.4002 1820.4729,600.9222 1820.4729,599.1182" id="Fill-90" fill="#2E3E4D" mask="url(#mask-2)"></path>
            <path d="M1169.3529,364.2457 L1103.7139,364.2457 C1101.9019,364.2457 1100.4319,362.7777 1100.4319,360.9637 C1100.4319,359.1497 1101.9019,357.6817 1103.7139,357.6817 L1169.3529,357.6817 C1171.1649,357.6817 1172.6349,359.1497 1172.6349,360.9637 C1172.6349,362.7777 1171.1649,364.2457 1169.3529,364.2457" id="Fill-91" fill="#2E3E4D" mask="url(#mask-2)"></path>
            <path d="M1113.5601,374.0915 C1113.5601,372.2875 1115.0361,370.8095 1116.8421,370.8095 C1118.6461,370.8095 1120.1241,372.2875 1120.1241,374.0915 C1120.1241,375.8955 1118.6461,377.3735 1116.8421,377.3735 C1115.0361,377.3735 1113.5601,375.8955 1113.5601,374.0915 M1126.6881,374.0915 C1126.6881,372.2875 1128.1641,370.8095 1129.9701,370.8095 C1131.7741,370.8095 1133.2521,372.2875 1133.2521,374.0915 C1133.2521,375.8955 1131.7741,377.3735 1129.9701,377.3735 C1128.1641,377.3735 1126.6881,375.8955 1126.6881,374.0915 M1139.8151,374.0915 C1139.8151,372.2875 1141.2911,370.8095 1143.0971,370.8095 C1144.9021,370.8095 1146.3791,372.2875 1146.3791,374.0915 C1146.3791,375.8955 1144.9021,377.3735 1143.0971,377.3735 C1141.2911,377.3735 1139.8151,375.8955 1139.8151,374.0915" id="Fill-92" fill="#2E3E4D" mask="url(#mask-2)"></path>
            <path d="M774.7385,371.4717 L919.1435,371.4717 C920.9575,371.4717 922.4255,372.9397 922.4255,374.7537 C922.4255,376.5677 920.9575,378.0357 919.1435,378.0357 L774.7385,378.0357 C772.9245,378.0357 771.4565,376.5677 771.4565,374.7537 C771.4565,372.9397 772.9245,371.4717 774.7385,371.4717" id="Fill-93" fill="#2E3E4D" mask="url(#mask-2)"></path>
            <path d="M945.3993,358.3439 C946.2533,358.3439 947.1063,358.7059 947.7293,359.2959 C948.3203,359.9209 948.6813,360.7729 948.6813,361.6259 C948.6813,362.5139 948.3203,363.3339 947.7293,363.9559 C946.5163,365.1709 944.2843,365.1709 943.0693,363.9559 C942.4793,363.3339 942.1173,362.4789 942.1173,361.6259 C942.1173,360.7729 942.4793,359.9209 943.0693,359.2959 C943.6923,358.7059 944.5463,358.3439 945.3993,358.3439" id="Fill-94" fill="#2E3E4D" mask="url(#mask-2)"></path>
            <path d="M935.5535,361.6259 C935.5535,363.4299 934.0765,364.9079 932.2715,364.9079 C930.4675,364.9079 928.9895,363.4299 928.9895,361.6259 C928.9895,359.8219 930.4675,358.3439 932.2715,358.3439 C934.0765,358.3439 935.5535,359.8219 935.5535,361.6259 M922.4255,361.6259 C922.4255,363.4299 920.9485,364.9079 919.1435,364.9079 C917.3395,364.9079 915.8615,363.4299 915.8615,361.6259 C915.8615,359.8219 917.3395,358.3439 919.1435,358.3439 C920.9485,358.3439 922.4255,359.8219 922.4255,361.6259 M909.2985,361.6259 C909.2985,363.4299 907.8205,364.9079 906.0165,364.9079 C904.2115,364.9079 902.7345,363.4299 902.7345,361.6259 C902.7345,359.8219 904.2115,358.3439 906.0165,358.3439 C907.8205,358.3439 909.2985,359.8219 909.2985,361.6259" id="Fill-95" fill="#2E3E4D" mask="url(#mask-2)"></path>
            <path d="M892.8883,358.3439 C893.7763,358.3439 894.5963,358.6739 895.2183,359.2959 C895.8433,359.9209 896.1703,360.7729 896.1703,361.6259 C896.1703,362.4789 895.8433,363.3339 895.2183,363.9559 C893.9713,365.1709 891.8053,365.1709 890.5583,363.9559 C889.9683,363.3339 889.6063,362.4789 889.6063,361.6259 C889.6063,360.7729 889.9683,359.9209 890.5583,359.2959 C891.1833,358.7059 892.0353,358.3439 892.8883,358.3439" id="Fill-96" fill="#2E3E4D" mask="url(#mask-2)"></path>
            <path d="M719.5706,384.4681 C721.4066,384.6671 722.6886,386.3081 722.4586,388.0801 C722.2596,389.8851 720.6536,391.1951 718.8466,390.9681 C717.0416,390.7691 715.7636,389.1281 715.9586,387.3551 C716.1576,385.6831 717.5676,384.4361 719.2086,384.4361 C719.3396,384.4361 719.4716,384.4361 719.5706,384.4681 L719.5706,384.4681 Z M734.7336,384.9621 C735.3876,386.6341 734.5346,388.5381 732.8616,389.1951 C731.1536,389.8521 729.2526,388.9961 728.5956,387.3241 C727.9386,385.6181 728.7916,383.7151 730.4996,383.0581 C730.8586,382.9261 731.2856,382.8591 731.6796,382.8591 C732.9936,382.8591 734.2406,383.6481 734.7336,384.9621 L734.7336,384.9621 Z M709.2986,380.6281 L709.2986,380.6281 C710.8086,381.6481 711.2026,383.6791 710.1516,385.1921 C709.1316,386.6671 707.0996,387.0611 705.6226,386.0451 C704.1126,385.0261 703.7186,382.9901 704.7346,381.4811 C705.3916,380.5641 706.4106,380.0391 707.4586,380.0391 C708.0836,380.0391 708.7406,380.2341 709.2986,380.6281 L709.2986,380.6281 Z M744.1176,376.4621 C745.4956,377.6761 745.6276,379.7441 744.4476,381.1221 L744.4126,381.1221 C743.2336,382.4681 741.1656,382.5991 739.7876,381.4171 C738.4416,380.2341 738.3106,378.1351 739.4896,376.7891 C740.1466,376.0351 741.0346,375.6731 741.9516,375.6731 C742.7396,375.6731 743.4966,375.9361 744.1176,376.4621 L744.1176,376.4621 Z M701.9466,372.4551 C702.7986,374.0321 702.2096,376.0351 700.6006,376.8881 C699.0266,377.7411 697.0236,377.1511 696.1706,375.5421 C695.3156,373.9331 695.9086,371.9651 697.5136,371.1121 C698.0076,370.8501 698.5326,370.7181 699.0586,370.7181 C700.2376,370.7181 701.3566,371.3401 701.9466,372.4551 L701.9466,372.4551 Z M748.5156,364.6131 C750.2876,365.0391 751.3706,366.8121 750.9446,368.5841 C750.5186,370.3241 748.7456,371.4391 746.9736,370.9811 C745.2336,370.5871 744.1536,368.8141 744.5796,367.0421 C744.9386,365.5331 746.2846,364.5131 747.7616,364.5131 C747.9926,364.5131 748.2556,364.5491 748.5156,364.6131 L748.5156,364.6131 Z M699.2536,361.6261 L699.2536,361.7251 L699.2536,361.7891 C699.2866,363.6291 697.8116,365.1061 696.0046,365.1061 C694.1996,365.1381 692.7226,363.6611 692.6906,361.8561 L692.6906,361.7251 L692.6906,361.6261 C692.6906,359.8211 694.1676,358.3441 695.9716,358.3441 C697.7766,358.3441 699.2536,359.8211 699.2536,361.6261 L699.2536,361.6261 Z M750.8806,354.4721 L750.8806,354.4721 C751.3386,356.2131 750.2556,358.0171 748.4826,358.4431 C746.7426,358.8701 744.9736,357.8181 744.5116,356.0461 C744.0856,354.3091 745.1686,352.5011 746.9096,352.0751 C747.1726,352.0111 747.4666,351.9781 747.7296,351.9781 C749.1726,351.9781 750.5186,352.9631 750.8806,354.4721 L750.8806,354.4721 Z M700.5006,346.5301 C702.1096,347.3831 702.7346,349.3511 701.8786,350.9591 C701.0266,352.5681 699.0586,353.1931 697.4496,352.3381 C695.8406,351.4851 695.2186,349.5171 696.0716,347.9081 C696.6616,346.7931 697.8116,346.1681 698.9916,346.1681 C699.4846,346.1681 700.0106,346.2671 700.5006,346.5301 L700.5006,346.5301 Z M744.2816,341.9661 L744.2816,341.9661 C745.4956,343.3481 745.3646,345.4151 744.0216,346.6301 C742.6756,347.8091 740.6086,347.7101 739.3936,346.3311 C738.1796,344.9891 738.3106,342.9181 739.6566,341.7071 C740.2786,341.1461 741.0666,340.8861 741.8196,340.8861 C742.7396,340.8861 743.6276,341.2451 744.2816,341.9661 L744.2816,341.9661 Z M709.9876,338.1621 C711.0036,339.6711 710.6416,341.7071 709.1676,342.7221 C707.6576,343.7741 705.6226,343.3791 704.6036,341.9021 C703.5546,340.4241 703.9496,338.3571 705.4236,337.3411 C705.9816,336.9471 706.6386,336.7481 707.2956,336.7481 C708.3466,336.7481 709.3626,337.2421 709.9876,338.1621 L709.9876,338.1621 Z M732.6306,333.9921 C734.3396,334.6171 735.1916,336.5211 734.5666,338.2261 C733.9126,339.8991 732.0096,340.7551 730.3326,340.1301 C728.6276,339.4731 727.7756,337.6041 728.4326,335.8961 C728.9226,334.5821 730.1696,333.7611 731.4836,333.7611 C731.8776,333.7611 732.2716,333.8291 732.6306,333.9921 L732.6306,333.9921 Z M722.2946,335.1751 C722.4906,336.9791 721.2116,338.6201 719.4076,338.8161 C717.6346,339.0461 715.9936,337.7681 715.7636,335.9631 C715.5326,334.1561 716.8146,332.5151 718.6186,332.3191 C718.7506,332.2871 718.8816,332.2871 719.0126,332.2871 C720.6536,332.2871 722.0646,333.5021 722.2946,335.1751 L722.2946,335.1751 Z" id="Fill-97" fill="#2E3E4D" mask="url(#mask-2)"></path>
            <path d="M656.5888,371.4717 C662.0178,371.4717 666.4348,367.0547 666.4348,361.6257 C666.4348,356.1967 662.0178,351.7797 656.5888,351.7797 C651.1598,351.7797 646.7428,356.1967 646.7428,361.6257 C646.7428,367.0547 651.1598,371.4717 656.5888,371.4717 M656.5888,345.2167 C665.6368,345.2167 672.9988,352.5787 672.9988,361.6257 C672.9988,370.6737 665.6368,378.0357 656.5888,378.0357 C647.5408,378.0357 640.1788,370.6737 640.1788,361.6257 C640.1788,352.5787 647.5408,345.2167 656.5888,345.2167" id="Fill-98" fill="#2E3E4D" mask="url(#mask-2)"></path>
            <path d="M669.7166,318.9607 L682.8446,318.9607 C684.6586,318.9607 686.1266,320.4287 686.1266,322.2427 C686.1266,324.0567 684.6586,325.5247 682.8446,325.5247 L669.7166,325.5247 C667.9026,325.5247 666.4346,324.0567 666.4346,322.2427 C666.4346,320.4287 667.9026,318.9607 669.7166,318.9607" id="Fill-99" fill="#2E3E4D" mask="url(#mask-2)"></path>
            <path d="M1552.9066,585.1533 C1552.9066,592.4783 1546.9146,598.4703 1539.5896,598.4703 L1486.3206,598.4703 C1478.9946,598.4703 1473.0026,592.4783 1473.0026,585.1533 L1473.0026,465.2973 C1473.0026,457.9723 1478.9946,451.9803 1486.3206,451.9803 L1539.5896,451.9803 C1546.9146,451.9803 1552.9066,457.9723 1552.9066,465.2973 L1552.9066,585.1533 Z" id="Fill-100" fill="#FFFFFF" mask="url(#mask-2)"></path>
            <path d="M1552.907,478.615 L1473.003,478.615 L1473.003,571.836 L1552.907,571.836 L1552.907,478.615 Z" id="Fill-101" fill="#A5ECDE" mask="url(#mask-2)"></path>
            <path d="M1479.6615,575.1653 C1478.8095,575.1653 1477.9575,574.8403 1477.3075,574.1903 C1476.0065,572.8893 1476.0065,570.7823 1477.3075,569.4823 L1516.4275,530.3623 C1517.7275,529.0623 1519.8345,529.0623 1521.1345,530.3623 C1522.4355,531.6633 1522.4355,533.7703 1521.1345,535.0703 L1482.0155,574.1903 C1481.3655,574.8403 1480.5135,575.1653 1479.6615,575.1653" id="Fill-102" fill="#FFFFFF" mask="url(#mask-2)"></path>
            <path d="M1474.6676,560.1833 C1473.8156,560.1833 1472.9636,559.8583 1472.3136,559.2083 C1471.0126,557.9073 1471.0126,555.8003 1472.3136,554.5003 L1550.5526,476.2613 C1551.8536,474.9603 1553.9596,474.9603 1555.2606,476.2613 C1556.5616,477.5613 1556.5616,479.6683 1555.2606,480.9683 L1477.0216,559.2083 C1476.3716,559.8583 1475.5196,560.1833 1474.6676,560.1833" id="Fill-103" fill="#FFFFFF" mask="url(#mask-2)"></path>
            <path d="M1513.7871,575.1653 C1512.9351,575.1653 1512.0831,574.8403 1511.4331,574.1903 C1510.1321,572.8893 1510.1321,570.7823 1511.4331,569.4823 L1549.7201,531.1953 C1551.0211,529.8943 1553.1281,529.8943 1554.4281,531.1953 C1555.7291,532.4953 1555.7291,534.6023 1554.4281,535.9023 L1516.1411,574.1903 C1515.4911,574.8403 1514.6391,575.1653 1513.7871,575.1653" id="Fill-104" fill="#FFFFFF" mask="url(#mask-2)"></path>
            <path d="M1486.5282,503.793 C1485.6762,503.793 1484.8242,503.468 1484.1742,502.818 C1482.8732,501.517 1482.8732,499.41 1484.1742,498.11 L1506.0232,476.261 C1507.3232,474.96 1509.4302,474.96 1510.7312,476.261 C1512.0312,477.562 1512.0312,479.668 1510.7312,480.969 L1488.8822,502.818 C1488.2322,503.468 1487.3802,503.793 1486.5282,503.793" id="Fill-105" fill="#FFFFFF" mask="url(#mask-2)"></path>
            <path d="M1486.3202,455.3097 C1480.8122,455.3097 1476.3322,459.7897 1476.3322,465.2977 L1476.3322,585.1537 C1476.3322,590.6607 1480.8122,595.1417 1486.3202,595.1417 L1539.5892,595.1417 C1545.0972,595.1417 1549.5772,590.6607 1549.5772,585.1537 L1549.5772,465.2977 C1549.5772,459.7897 1545.0972,455.3097 1539.5892,455.3097 L1486.3202,455.3097 Z M1539.5892,601.7997 L1486.3202,601.7997 C1477.1422,601.7997 1469.6732,594.3317 1469.6732,585.1537 L1469.6732,465.2977 C1469.6732,456.1197 1477.1422,448.6507 1486.3202,448.6507 L1539.5892,448.6507 C1548.7672,448.6507 1556.2362,456.1197 1556.2362,465.2977 L1556.2362,585.1537 C1556.2362,594.3317 1548.7672,601.7997 1539.5892,601.7997 L1539.5892,601.7997 Z" id="Fill-106" fill="#2E3E4D" mask="url(#mask-2)"></path>
            <path d="M1552.9066,575.1653 L1473.0026,575.1653 C1471.1626,575.1653 1469.6736,573.6743 1469.6736,571.8363 C1469.6736,569.9973 1471.1626,568.5063 1473.0026,568.5063 L1552.9066,568.5063 C1554.7466,568.5063 1556.2356,569.9973 1556.2356,571.8363 C1556.2356,573.6743 1554.7466,575.1653 1552.9066,575.1653" id="Fill-107" fill="#2E3E4D" mask="url(#mask-2)"></path>
            <path d="M1552.9066,481.9443 L1473.0026,481.9443 C1471.1626,481.9443 1469.6736,480.4533 1469.6736,478.6153 C1469.6736,476.7763 1471.1626,475.2853 1473.0026,475.2853 L1552.9066,475.2853 C1554.7466,475.2853 1556.2356,476.7763 1556.2356,478.6153 C1556.2356,480.4533 1554.7466,481.9443 1552.9066,481.9443" id="Fill-108" fill="#2E3E4D" mask="url(#mask-2)"></path>
            <path d="M1526.2721,468.627 L1512.9551,468.627 C1511.1151,468.627 1509.6251,467.136 1509.6251,465.298 C1509.6251,463.459 1511.1151,461.968 1512.9551,461.968 L1526.2721,461.968 C1528.1121,461.968 1529.6011,463.459 1529.6011,465.298 C1529.6011,467.136 1528.1121,468.627 1526.2721,468.627" id="Fill-109" fill="#2E3E4D" mask="url(#mask-2)"></path>
            <path d="M1499.6375,468.627 C1498.7365,468.627 1497.9045,468.259 1497.2735,467.627 C1496.6725,467.029 1496.3085,466.197 1496.3085,465.298 C1496.3085,464.431 1496.6725,463.566 1497.2735,462.934 C1498.5065,461.702 1500.7685,461.702 1502.0015,462.934 C1502.5995,463.566 1502.9665,464.431 1502.9665,465.298 C1502.9665,466.197 1502.5995,467.029 1502.0015,467.661 C1501.3675,468.259 1500.5025,468.627 1499.6375,468.627" id="Fill-110" fill="#DBF286" mask="url(#mask-2)"></path>
            <path d="M1519.6134,588.4826 L1506.2964,588.4826 C1504.4564,588.4826 1502.9664,586.9916 1502.9664,585.1536 C1502.9664,583.3146 1504.4564,581.8236 1506.2964,581.8236 L1519.6134,581.8236 C1521.4534,581.8236 1522.9424,583.3146 1522.9424,585.1536 C1522.9424,586.9916 1521.4534,588.4826 1519.6134,588.4826" id="Fill-111" fill="#2E3E4D" mask="url(#mask-2)"></path>
            <path d="M1222.5105,370.6822 L1222.5105,351.3262 L1235.9885,347.6712 L1235.9885,374.3372 L1222.5105,370.6822 Z" id="Fill-142" fill="#CCCCCC" mask="url(#mask-2)"></path>
            <path d="M1222.5105,370.6822 L1222.5105,351.3262 L1235.9885,347.6712 L1235.9885,374.3372 L1222.5105,370.6822 L1222.5105,370.6822 Z" id="Stroke-143" stroke="#2E3E4D" stroke-width="5.482" mask="url(#mask-2)"></path>
            <path d="M1230.8971,314.0403 C1238.0521,310.7023 1242.2541,308.8673 1254.0251,308.8673 C1265.7951,308.8673 1284.1011,315.9273 1295.0001,326.7043 L1294.9991,326.7063 C1279.2331,327.6263 1264.1381,331.0373 1250.0961,336.5483 L1250.0941,336.5473 L1230.8971,314.0403 Z" id="Fill-144" fill="#DBF286" mask="url(#mask-2)"></path>
            <path d="M1230.8971,314.0403 C1238.0521,310.7023 1242.2541,308.8673 1254.0251,308.8673 C1265.7951,308.8673 1284.1011,315.9273 1295.0001,326.7043 L1294.9991,326.7063 C1279.2331,327.6263 1264.1381,331.0373 1250.0961,336.5483 L1250.0941,336.5473 L1230.8971,314.0403 L1230.8971,314.0403 Z" id="Stroke-145" stroke="#2E3E4D" stroke-width="5.482" mask="url(#mask-2)"></path>
            <path d="M1235.9883,379.041 C1256.2473,389.59 1279.2713,395.556 1303.6923,395.556 C1339.7413,395.556 1372.7503,382.558 1398.3063,361.004 C1372.7503,339.45 1339.7413,326.452 1303.6923,326.452 C1279.2713,326.452 1256.2473,332.418 1235.9883,342.967 L1235.9883,379.041 Z" id="Fill-146" fill="#FFFFFF" mask="url(#mask-2)"></path>
            <path d="M1235.9883,379.041 C1256.2473,389.59 1279.2713,395.556 1303.6923,395.556 C1339.7413,395.556 1372.7503,382.558 1398.3063,361.004 C1372.7503,339.45 1339.7413,326.452 1303.6923,326.452 C1279.2713,326.452 1256.2473,332.418 1235.9883,342.967 L1235.9883,379.041 L1235.9883,379.041 Z" id="Stroke-147" stroke="#2E3E4D" stroke-width="5.482" mask="url(#mask-2)"></path>
            <path d="M1353.2792,361.0037 C1353.2792,369.1797 1346.6512,375.8067 1338.4762,375.8067 C1330.3002,375.8067 1323.6732,369.1797 1323.6732,361.0037 C1323.6732,352.8277 1330.3002,346.2007 1338.4762,346.2007 C1346.6512,346.2007 1353.2792,352.8277 1353.2792,361.0037" id="Fill-148" fill="#2E3E4D" mask="url(#mask-2)"></path>
            <path d="M1377.2733,346.2007 C1384.7233,350.5237 1391.7603,355.4827 1398.3063,361.0037 C1391.7603,366.5247 1384.7233,371.4837 1377.2733,375.8067 C1375.2483,371.2867 1374.1213,366.2777 1374.1213,361.0037 C1374.1213,355.7307 1375.2483,350.7207 1377.2733,346.2007" id="Fill-149" fill="#DBF286" mask="url(#mask-2)"></path>
            <path d="M1377.2733,346.2007 C1384.7233,350.5237 1391.7603,355.4827 1398.3063,361.0037 C1391.7603,366.5247 1384.7233,371.4837 1377.2733,375.8067 C1375.2483,371.2867 1374.1213,366.2777 1374.1213,361.0037 C1374.1213,355.7307 1375.2483,350.7207 1377.2733,346.2007 L1377.2733,346.2007 Z" id="Stroke-150" stroke="#2E3E4D" stroke-width="5.482" mask="url(#mask-2)"></path>
            <path d="M1266.7103,366.1798 C1275.6673,365.0648 1285.4593,363.0078 1292.2163,361.0038 C1285.4593,358.9998 1275.6673,356.9428 1266.7103,355.8288 C1264.0123,355.2788 1261.4733,354.9838 1256.4713,354.9838 C1249.9403,354.9838 1239.8923,358.0508 1233.8463,361.0038 C1239.8923,363.9568 1249.9403,367.0238 1256.4713,367.0238 C1261.4733,367.0238 1264.0123,366.7298 1266.7103,366.1798" id="Fill-151" fill="#DBF286" mask="url(#mask-2)"></path>
            <path d="M1266.7103,366.1798 C1275.6673,365.0648 1285.4593,363.0078 1292.2163,361.0038 C1285.4593,358.9998 1275.6673,356.9428 1266.7103,355.8288 C1264.0123,355.2788 1261.4733,354.9838 1256.4713,354.9838 C1249.9403,354.9838 1239.8923,358.0508 1233.8463,361.0038 C1239.8923,363.9568 1249.9403,367.0238 1256.4713,367.0238 C1261.4733,367.0238 1264.0123,366.7298 1266.7103,366.1798 L1266.7103,366.1798 Z" id="Stroke-152" stroke="#2E3E4D" stroke-width="5.482" mask="url(#mask-2)"></path>
            <path d="M1348.1527,361.0037 C1348.1527,366.3477 1343.8207,370.6807 1338.4757,370.6807 C1333.1317,370.6807 1328.7997,366.3477 1328.7997,361.0037 C1328.7997,355.6597 1333.1317,351.3277 1338.4757,351.3277 C1343.8207,351.3277 1348.1527,355.6597 1348.1527,361.0037" id="Fill-153" fill="#A5ECDE" mask="url(#mask-2)"></path>
            <path d="M1230.8971,407.8871 C1238.0521,411.2251 1242.2541,413.0601 1254.0251,413.0601 C1265.7951,413.0601 1284.1011,406.0001 1295.0001,395.2231 L1294.9991,395.2221 C1279.2331,394.3011 1264.1381,390.8901 1250.0961,385.3791 L1250.0941,385.3801 L1230.8971,407.8871 Z" id="Fill-154" fill="#DBF286" mask="url(#mask-2)"></path>
            <path d="M1230.8971,407.8871 C1238.0521,411.2251 1242.2541,413.0601 1254.0251,413.0601 C1265.7951,413.0601 1284.1011,406.0001 1295.0001,395.2231 L1294.9991,395.2221 C1279.2331,394.3011 1264.1381,390.8901 1250.0961,385.3791 L1250.0941,385.3801 L1230.8971,407.8871 L1230.8971,407.8871 Z" id="Stroke-155" stroke="#2E3E4D" stroke-width="5.482" mask="url(#mask-2)"></path>
            <path d="M505.6889,629.4281 L505.6889,613.7731 L495.2519,613.7731 L495.2519,629.4281 L490.0339,629.4281 L490.0339,692.0491 L510.9069,692.0491 L510.9069,629.4281 L505.6889,629.4281 Z" id="Fill-156" fill="#FFFFFF" mask="url(#mask-2)"></path>
            <path d="M510.907,639.865 L490.033,639.865 L490.033,681.612 L510.907,681.612 L510.907,639.865 Z" id="Fill-157" fill="#DBF286" mask="url(#mask-2)"></path>
            <path d="M492.6429,689.4397 L508.2979,689.4397 L508.2979,632.0377 L505.6889,632.0377 C504.2479,632.0377 503.0799,630.8697 503.0799,629.4277 L503.0799,616.3817 L497.8609,616.3817 L497.8609,629.4277 C497.8609,630.8697 496.6929,632.0377 495.2519,632.0377 L492.6429,632.0377 L492.6429,689.4397 Z M510.9069,694.6577 L490.0339,694.6577 C488.5929,694.6577 487.4249,693.4907 487.4249,692.0487 L487.4249,629.4277 C487.4249,627.9857 488.5929,626.8187 490.0339,626.8187 L492.6429,626.8187 L492.6429,613.7727 C492.6429,612.3307 493.8109,611.1637 495.2519,611.1637 L505.6889,611.1637 C507.1299,611.1637 508.2979,612.3307 508.2979,613.7727 L508.2979,626.8187 L510.9069,626.8187 C512.3479,626.8187 513.5169,627.9857 513.5169,629.4277 L513.5169,692.0487 C513.5169,693.4907 512.3479,694.6577 510.9069,694.6577 L510.9069,694.6577 Z" id="Fill-158" fill="#2E3E4D" mask="url(#mask-2)"></path>
            <path d="M505.6889,632.0373 L495.2519,632.0373 C493.8109,632.0373 492.6429,630.8703 492.6429,629.4283 C492.6429,627.9863 493.8109,626.8193 495.2519,626.8193 L505.6889,626.8193 C507.1299,626.8193 508.2979,627.9863 508.2979,629.4283 C508.2979,630.8703 507.1299,632.0373 505.6889,632.0373" id="Fill-159" fill="#2E3E4D" mask="url(#mask-2)"></path>
            <path d="M510.9073,642.4741 L490.0333,642.4741 C488.5933,642.4741 487.4243,641.3071 487.4243,639.8651 C487.4243,638.4231 488.5933,637.2561 490.0333,637.2561 L510.9073,637.2561 C512.3483,637.2561 513.5163,638.4231 513.5163,639.8651 C513.5163,641.3071 512.3483,642.4741 510.9073,642.4741" id="Fill-160" fill="#2E3E4D" mask="url(#mask-2)"></path>
            <path d="M510.9073,684.2213 L490.0333,684.2213 C488.5933,684.2213 487.4243,683.0543 487.4243,681.6123 C487.4243,680.1703 488.5933,679.0033 490.0333,679.0033 L510.9073,679.0033 C512.3483,679.0033 513.5163,680.1703 513.5163,681.6123 C513.5163,683.0543 512.3483,684.2213 510.9073,684.2213" id="Fill-161" fill="#2E3E4D" mask="url(#mask-2)"></path>
            <path d="M500.4705,608.5544 C483.1785,608.5544 469.1605,594.5354 469.1605,577.2444 C469.1605,559.9524 483.1785,545.9334 500.4705,545.9334 C517.7625,545.9334 531.7805,559.9524 531.7805,577.2444 C531.7805,594.5354 517.7625,608.5544 500.4705,608.5544 M500.4705,535.4964 C477.4145,535.4964 458.7235,554.1894 458.7235,577.2444 C458.7235,600.2984 477.4145,618.9914 500.4705,618.9914 C523.5265,618.9914 542.2175,600.2984 542.2175,577.2444 C542.2175,554.1894 523.5265,535.4964 500.4705,535.4964" id="Fill-162" fill="#FFFFFF" mask="url(#mask-2)"></path>
            <path d="M531.7809,577.244 C531.7809,594.535 517.7629,608.554 500.4709,608.554 C483.1779,608.554 469.1599,594.535 469.1599,577.244 C469.1599,559.953 483.1779,545.934 500.4709,545.934 C517.7629,545.934 531.7809,559.953 531.7809,577.244" id="Fill-163" fill="#A5ECDE" mask="url(#mask-2)"></path>
            <path d="M500.4705,538.106 C478.8895,538.106 461.3325,555.662 461.3325,577.244 C461.3325,598.826 478.8895,616.382 500.4705,616.382 C522.0515,616.382 539.6085,598.826 539.6085,577.244 C539.6085,555.662 522.0515,538.106 500.4705,538.106 M500.4705,621.6 C476.0115,621.6 456.1145,601.703 456.1145,577.244 C456.1145,552.785 476.0115,532.888 500.4705,532.888 C524.9295,532.888 544.8265,552.785 544.8265,577.244 C544.8265,601.703 524.9295,621.6 500.4705,621.6" id="Fill-164" fill="#2E3E4D" mask="url(#mask-2)"></path>
            <path d="M500.4705,548.5428 C484.6445,548.5428 471.7695,561.4178 471.7695,577.2438 C471.7695,593.0698 484.6445,605.9448 500.4705,605.9448 C516.2965,605.9448 529.1715,593.0698 529.1715,577.2438 C529.1715,561.4178 516.2965,548.5428 500.4705,548.5428 M500.4705,611.1638 C481.7665,611.1638 466.5505,595.9468 466.5505,577.2438 C466.5505,558.5408 481.7665,543.3248 500.4705,543.3248 C519.1745,543.3248 534.3905,558.5408 534.3905,577.2438 C534.3905,595.9468 519.1745,611.1638 500.4705,611.1638" id="Fill-165" fill="#2E3E4D" mask="url(#mask-2)"></path>
            <path d="M479.5969,579.8532 C478.1559,579.8532 476.9879,578.6862 476.9879,577.2442 C476.9879,564.2952 487.5229,553.7612 500.4709,553.7612 C501.9109,553.7612 503.0799,554.9282 503.0799,556.3702 C503.0799,557.8122 501.9109,558.9792 500.4709,558.9792 C490.3989,558.9792 482.2059,567.1742 482.2059,577.2442 C482.2059,578.6862 481.0379,579.8532 479.5969,579.8532" id="Fill-166" fill="#FFFFFF" mask="url(#mask-2)"></path>
            <path d="M328.8643,592.3509 L317.4163,592.3509 L311.6913,580.9029 L334.5883,580.9029 L328.8643,592.3509 Z" id="Fill-167" fill="#707070" mask="url(#mask-2)"></path>
            <path d="M340.3128,546.5571 C340.3128,532.8141 346.0368,531.8971 355.5208,521.6951 C363.8078,513.4081 368.9338,501.9601 368.9338,489.3151 C368.9338,464.0231 348.4318,443.5211 323.1398,443.5211 C297.8478,443.5211 277.3468,464.0231 277.3468,489.3151 C277.3468,501.9601 282.4728,513.4081 290.7598,521.6951 C300.2428,531.8971 305.9678,532.8141 305.9678,546.5571 L340.3128,546.5571 Z" id="Fill-168" fill="#FFFFFF" mask="url(#mask-2)"></path>
            <path d="M340.3128,549.4192 C338.7308,549.4192 337.4508,548.1392 337.4508,546.5572 C337.4508,534.8932 341.3968,531.2322 347.3728,525.6892 C349.1648,524.0262 351.1998,522.1402 353.4248,519.7472 C361.6058,511.5632 366.0718,500.7832 366.0718,489.3152 C366.0718,465.6412 346.8138,446.3832 323.1398,446.3832 C299.4658,446.3832 280.2088,465.6412 280.2088,489.3152 C280.2088,500.7832 284.6748,511.5632 292.7838,519.6712 C295.0808,522.1402 297.1158,524.0262 298.9068,525.6892 C304.8828,531.2322 308.8298,534.8932 308.8298,546.5572 C308.8298,548.1392 307.5498,549.4192 305.9678,549.4192 C304.3858,549.4192 303.1058,548.1392 303.1058,546.5572 C303.1058,537.3922 300.5708,535.0392 295.0168,529.8872 C293.1498,528.1542 291.0338,526.1922 288.6638,523.6432 C279.5458,514.5292 274.4838,502.3122 274.4838,489.3152 C274.4838,462.4852 296.3108,440.6592 323.1398,440.6592 C349.9698,440.6592 371.7958,462.4852 371.7958,489.3152 C371.7958,502.3122 366.7338,514.5292 357.5438,523.7192 C355.2468,526.1922 353.1308,528.1542 351.2638,529.8872 C345.7098,535.0392 343.1748,537.3922 343.1748,546.5572 C343.1748,548.1392 341.8948,549.4192 340.3128,549.4192" id="Fill-169" fill="#2E3E4D" mask="url(#mask-2)"></path>
            <path d="M334.5886,480.7286 L311.6916,480.7286 C310.1096,480.7286 308.8296,479.4486 308.8296,477.8666 C308.8296,476.2846 310.1096,475.0046 311.6916,475.0046 L334.5886,475.0046 C336.1706,475.0046 337.4506,476.2846 337.4506,477.8666 C337.4506,479.4486 336.1706,480.7286 334.5886,480.7286" id="Fill-170" fill="#DBF286" mask="url(#mask-2)"></path>
            <path d="M323.143,549.4192 C322.986,549.4192 322.83,549.4082 322.67,549.3802 C321.111,549.1202 320.057,547.6442 320.317,546.0872 L331.766,477.3972 C332.026,475.8372 333.498,474.7722 335.058,475.0432 C336.618,475.3032 337.671,476.7792 337.411,478.3362 L325.963,547.0272 C325.731,548.4272 324.518,549.4192 323.143,549.4192" id="Fill-171" fill="#DBF286" mask="url(#mask-2)"></path>
            <path d="M323.1373,549.4192 C321.7623,549.4192 320.5493,548.4272 320.3173,547.0272 L308.8693,478.3362 C308.6093,476.7792 309.6623,475.3032 311.2223,475.0432 C312.7823,474.7752 314.2543,475.8372 314.5143,477.3972 L325.9633,546.0872 C326.2233,547.6442 325.1693,549.1202 323.6103,549.3802 C323.4503,549.4082 323.2943,549.4192 323.1373,549.4192" id="Fill-172" fill="#DBF286" mask="url(#mask-2)"></path>
            <path d="M319.1852,589.4887 L327.0952,589.4887 L329.9572,583.7647 L316.3232,583.7647 L319.1852,589.4887 Z M328.8642,595.2127 L317.4162,595.2127 C316.3312,595.2127 315.3422,594.6007 314.8562,593.6307 L309.1312,582.1827 C308.6872,581.2967 308.7342,580.2427 309.2572,579.3987 C309.7802,578.5547 310.6992,578.0407 311.6912,578.0407 L334.5882,578.0407 C335.5812,578.0407 336.5002,578.5547 337.0232,579.3987 C337.5452,580.2427 337.5932,581.2967 337.1482,582.1827 L331.4242,593.6307 C330.9382,594.6007 329.9492,595.2127 328.8642,595.2127 L328.8642,595.2127 Z" id="Fill-173" fill="#2E3E4D" mask="url(#mask-2)"></path>
            <path d="M288.7948,492.177 C287.2128,492.177 285.9328,490.897 285.9328,489.315 C285.9328,468.799 302.6248,452.107 323.1398,452.107 C324.7218,452.107 326.0018,453.388 326.0018,454.97 C326.0018,456.551 324.7218,457.832 323.1398,457.832 C305.7798,457.832 291.6568,471.955 291.6568,489.315 C291.6568,490.897 290.3768,492.177 288.7948,492.177" id="Fill-174" fill="#A5ECDE" mask="url(#mask-2)"></path>
            <path d="M340.313,546.557 L305.968,546.557 L305.968,580.902 L340.313,580.902 L340.313,546.557 Z" id="Fill-175" fill="#CCCCCC" mask="url(#mask-2)"></path>
            <path d="M308.83,578.04 L337.451,578.04 L337.451,549.419 L308.83,549.419 L308.83,578.04 Z M340.313,583.765 L305.967,583.765 C304.386,583.765 303.105,582.484 303.105,580.902 L303.105,546.557 C303.105,544.975 304.386,543.695 305.967,543.695 L340.313,543.695 C341.895,543.695 343.175,544.975 343.175,546.557 L343.175,580.902 C343.175,582.484 341.895,583.765 340.313,583.765 L340.313,583.765 Z" id="Fill-176" fill="#2E3E4D" mask="url(#mask-2)"></path>
            <path d="M340.3128,560.8677 L305.9678,560.8677 C304.3858,560.8677 303.1058,559.5877 303.1058,558.0057 C303.1058,556.4237 304.3858,555.1437 305.9678,555.1437 L340.3128,555.1437 C341.8948,555.1437 343.1748,556.4237 343.1748,558.0057 C343.1748,559.5877 341.8948,560.8677 340.3128,560.8677" id="Fill-177" fill="#2E3E4D" mask="url(#mask-2)"></path>
            <path d="M305.9675,569.454 L340.3125,569.454 L305.9675,569.454 Z" id="Fill-178" fill="#FFFFFF" mask="url(#mask-2)"></path>
            <path d="M340.3128,572.3161 L305.9678,572.3161 C304.3858,572.3161 303.1058,571.0361 303.1058,569.4541 C303.1058,567.8721 304.3858,566.5921 305.9678,566.5921 L340.3128,566.5921 C341.8948,566.5921 343.1748,567.8721 343.1748,569.4541 C343.1748,571.0361 341.8948,572.3161 340.3128,572.3161" id="Fill-179" fill="#2E3E4D" mask="url(#mask-2)"></path>
        </g>
    </g>
</svg>
